<?xml version="1.0" standalone="no"?>
<!DOCTYPE svg PUBLIC "-//W3C//DTD SVG 1.1//EN" "http://www.w3.org/Graphics/SVG/1.1/DTD/svg11.dtd" >
<svg xmlns="http://www.w3.org/2000/svg">
<metadata></metadata>
<defs>
<font id="unitcomp-lightregular" horiz-adv-x="1126" >
<font-face units-per-em="2048" ascent="1624" descent="-424" />
<missing-glyph horiz-adv-x="471" />
<glyph unicode="&#xfb01;" horiz-adv-x="1021" d="M80 879v100h117v199q0 80 22.5 136t61 93t92 54.5t112.5 17.5q86 0 139.5 -17.5t106.5 -52.5l-49 -96q-43 27 -82 42t-104 15q-86 0 -131.5 -43t-45.5 -151v-197h512v-979h-122v879h-390v-879h-122v879h-117z" />
<glyph unicode="&#xfb02;" horiz-adv-x="1042" d="M80 879v100h117v186q0 84 26.5 143.5t71.5 97.5t106.5 55.5t130.5 17.5q63 0 108.5 -4.5t80.5 -10.5h110v-1300q0 -47 17.5 -63.5t52.5 -16.5q27 0 45 6l19 -88q-18 -8 -43 -13t-54 -5q-72 0 -115.5 42t-43.5 150v1180q-33 8 -72 13t-94 5q-106 0 -165 -47t-59 -164v-184 h220v-100h-220v-879h-122v879h-117z" />
<glyph unicode="&#xfb03;" horiz-adv-x="1533" d="M80 879v100h117v225q0 68 18 116t49 79t71 45t83 14q57 0 98 -9t84 -38l-45 -92q-33 16 -59.5 25.5t-65.5 9.5q-53 0 -82 -36t-29 -116v-223h390v199q0 80 22.5 136t62.5 93t92 54.5t111 17.5q86 0 140.5 -17.5t107.5 -52.5l-51 -96q-41 27 -81 42t-103 15 q-86 0 -132.5 -43t-46.5 -151v-197h512v-979h-120v879h-392v-879h-122v879h-390v-879h-122v879h-117z" />
<glyph unicode="&#xfb04;" horiz-adv-x="1554" d="M80 879v100h117v225q0 68 18 116t49 79t71 45t83 14q57 0 98 -9t84 -38l-45 -92q-33 16 -59.5 25.5t-65.5 9.5q-53 0 -82 -36t-29 -116v-223h390v186q0 84 26.5 143.5t72.5 97.5t106.5 55.5t129.5 17.5q63 0 109.5 -4.5t81.5 -10.5h108v-1300q0 -47 18.5 -63.5 t53.5 -16.5q25 0 43 6l21 -88q-20 -8 -45 -13t-52 -5q-72 0 -115.5 42t-43.5 150v1180q-35 8 -73 13t-93 5q-106 0 -166 -47t-60 -164v-184h220v-100h-220v-879h-122v879h-390v-879h-122v879h-117z" />
<glyph horiz-adv-x="2048" />
<glyph horiz-adv-x="2048" />
<glyph unicode="&#xd;" horiz-adv-x="471" />
<glyph unicode=" "  horiz-adv-x="471" />
<glyph unicode="&#x09;" horiz-adv-x="471" />
<glyph unicode="&#xa0;" horiz-adv-x="471" />
<glyph unicode="!" horiz-adv-x="516" d="M154 90q0 45 29.5 76t74.5 31q43 0 73.5 -31t30.5 -76t-30.5 -74.5t-73.5 -29.5q-45 0 -74.5 29.5t-29.5 74.5zM182 1407h148l-27 -1026h-96z" />
<glyph unicode="&#x22;" horiz-adv-x="757" d="M172 958v496h115v-496h-115zM469 958v496h117v-496h-117z" />
<glyph unicode="#" d="M88 434v98h205l53 357h-199v102h213l64 416h104l-63 -416h278l64 416h104l-63 -416h188v-102h-202l-54 -357h197v-98h-211l-66 -434h-104l66 434h-279l-66 -434h-104l66 434h-191zM397 532h279l53 357h-278z" />
<glyph unicode="$" d="M143 125l60 86q66 -53 146.5 -89t178.5 -40v612q-74 31 -133 64t-100 77t-62.5 103t-21.5 143q0 160 81 246t234 96v193h95v-193q90 -6 154.5 -31.5t121.5 -66.5l-53 -86q-49 35 -103.5 56.5t-122.5 27.5v-539q78 -33 140.5 -68.5t107.5 -82.5t68.5 -112.5t23.5 -158.5 q0 -350 -337 -380v-218h-95v216q-117 6 -216 47t-167 98zM334 1085q0 -55 11 -94t34.5 -68.5t60.5 -53t88 -48.5v502q-195 -20 -194 -238zM618 86q113 14 163 78.5t50 193.5q0 61 -13 106.5t-40.5 79.5t-67.5 60.5t-92 50.5v-569z" />
<glyph unicode="%" horiz-adv-x="1656" d="M111 969q0 162 81.5 256t219.5 94q135 0 220 -94.5t85 -261.5q0 -160 -80 -254.5t-221 -94.5t-223 95.5t-82 259.5zM229 975q0 -141 46.5 -203.5t138.5 -62.5q184 0 184 247q0 141 -47 205t-139 64q-182 0 -183 -250zM379 0l780 1300h117l-778 -1300h-119zM938 336 q0 162 82 256t219 94t222 -95t85 -261q0 -160 -81 -254t-220 -94q-141 0 -224 95t-83 259zM1059 342q0 -141 46 -203.5t138 -62.5q182 0 182 248q0 141 -46 204.5t-138 63.5q-182 0 -182 -250z" />
<glyph unicode="&#x26;" horiz-adv-x="1308" d="M119 373q0 158 81 258t228 174l-16 18q-72 86 -114 160t-42 162q0 125 84 202.5t231 77.5q66 0 122.5 -18t97 -55t64.5 -92.5t24 -129.5q0 -111 -70 -192.5t-207 -153.5l338 -401q57 150 86 356l117 -10q-16 -135 -46 -245.5t-73 -196.5l242 -287h-160l-150 176 q-150 -203 -405 -203q-119 0 -202 34t-134 89.5t-73.5 127t-22.5 149.5zM256 373q0 -61 14.5 -114.5t48 -94.5t92 -64.5t144.5 -23.5q109 0 188.5 48t137.5 140l-392 465q-117 -61 -175 -146t-58 -210zM385 1147q0 -70 32 -127t85 -117l39 -47q113 63 160 124.5t47 147.5 q0 197 -175 197q-90 0 -139 -49t-49 -129z" />
<glyph unicode="'" horiz-adv-x="458" d="M172 958v496h115v-496h-115z" />
<glyph unicode="(" horiz-adv-x="669" d="M131 631q0 197 27.5 349.5t80 268t129 196.5t177.5 134l45 -78q-84 -55 -144.5 -129t-100.5 -178t-58.5 -242.5t-18.5 -320.5q0 -184 19.5 -322.5t59.5 -242t100.5 -176t142.5 -126.5l-43 -77q-98 51 -175 132t-130.5 196.5t-82 268t-28.5 347.5z" />
<glyph unicode=")" horiz-adv-x="669" d="M78 -236q84 53 144.5 126t100 175.5t59 240.5t19.5 323q0 182 -19.5 321.5t-59 243.5t-100 179t-144.5 128l45 78q98 -53 176 -134t131 -198t81 -270.5t28 -351.5q0 -195 -28 -345.5t-82 -265t-131 -194.5t-175 -133z" />
<glyph unicode="*" horiz-adv-x="911" d="M111 1116l32 90l263 -100v301h100v-299l262 96l33 -90l-269 -96l173 -244l-78 -53l-170 244l-170 -244l-78 53l170 246z" />
<glyph unicode="+" d="M176 588v106h328v363h117v-363h327v-106h-327v-363h-117v363h-328z" />
<glyph unicode="," horiz-adv-x="493" d="M137 -154q43 16 75 53.5t32 86.5q-37 2 -71 28.5t-34 79.5q0 47 31 77t74 30q47 0 79.5 -38t32.5 -110q0 -94 -44 -171t-150 -105z" />
<glyph unicode="-" horiz-adv-x="598" d="M115 487v123h366v-123h-366z" />
<glyph unicode="." horiz-adv-x="493" d="M139 92q0 47 32 78t75 31q45 0 75.5 -31t30.5 -78t-30.5 -76.5t-75.5 -29.5q-43 0 -75 29.5t-32 76.5z" />
<glyph unicode="/" horiz-adv-x="724" d="M53 -299l504 1853h115l-504 -1853h-115z" />
<glyph unicode="0" d="M109 698q0 367 110.5 547t343.5 180t344 -177t111 -541q0 -367 -110 -546t-341 -179q-236 0 -347 176t-111 540zM242 705q0 -164 18.5 -282t58 -193.5t100 -110.5t146.5 -35t145.5 34t98.5 107.5t56.5 189t17.5 281.5q0 328 -75 476.5t-245 148.5q-86 0 -146.5 -35 t-99 -108.5t-57 -190.5t-18.5 -282z" />
<glyph unicode="1" d="M203 1163l358 254h98v-1313h271v-104h-692v104h294v1145l-290 -153z" />
<glyph unicode="2" d="M180 0v115q190 195 309 331t184.5 239t89 183t23.5 160q0 145 -59 218t-190 73q-92 0 -161 -24.5t-140 -69.5l-50 90q88 55 170 82.5t187 27.5q180 0 278.5 -101t98.5 -294q0 -88 -29 -179t-98.5 -198.5t-183 -239.5t-285.5 -304h620v-109h-764z" />
<glyph unicode="3" d="M121 55l31 95q68 -25 147.5 -43.5t175.5 -18.5q168 0 249 76t81 239q0 88 -23.5 146.5t-66.5 93.5t-103.5 48.5t-134.5 13.5h-98v102h98q145 0 213 67.5t68 196.5q0 117 -61.5 182.5t-190.5 65.5q-86 0 -163 -23.5t-148 -64.5l-45 88q88 53 172 79.5t196 26.5 q90 0 158.5 -26.5t116 -72.5t72 -108.5t24.5 -132.5q0 -242 -211 -323q117 -31 189.5 -118t72.5 -243q0 -199 -116 -310t-343 -111q-109 0 -197.5 21.5t-162.5 53.5z" />
<glyph unicode="4" d="M111 319v119l421 969h136l-428 -979h495v582l129 26v-608h162v-109h-162v-319h-129v319h-624z" />
<glyph unicode="5" d="M135 51l33 99q66 -25 139.5 -43.5t157.5 -18.5q184 0 268 98.5t84 268.5q0 178 -93 257t-251 79q-66 0 -129 -10.5t-123 -28.5l62 655h635v-109h-531l-39 -417q29 6 69 10t75 4q104 0 188 -28.5t144.5 -84t93 -136.5t32.5 -185q0 -109 -31.5 -197t-92 -151.5t-149.5 -97 t-204 -33.5q-96 0 -181 19t-157 50z" />
<glyph unicode="6" d="M133 561q0 207 48 355.5t138.5 251t218.5 164t289 91.5l27 -98q-127 -29 -226.5 -71t-172 -109.5t-117.5 -165.5t-62 -240q57 53 136.5 94t187.5 41q80 0 151.5 -28.5t127 -83.5t87 -137t31.5 -189q0 -113 -30.5 -197.5t-86 -142t-131 -87t-165.5 -29.5q-96 0 -178 36.5 t-142.5 110.5t-95.5 182.5t-35 251.5zM266 553q0 -248 85 -359.5t233 -111.5q141 0 210.5 92t69.5 258q0 168 -76.5 254t-207.5 86q-100 0 -173 -38t-139 -93q-2 -23 -2 -45v-43z" />
<glyph unicode="7" d="M156 1298v109h796v-117q-96 -113 -179 -252t-147.5 -302t-106.5 -350t-56 -398l-135 14q20 223 70.5 415.5t119 354.5t149.5 293t164 233h-675z" />
<glyph unicode="8" d="M129 358q0 76 21.5 135.5t61.5 104.5t94 80t122 63q-72 33 -119 74t-74.5 86t-39 92t-11.5 97q0 152 98.5 243.5t278.5 91.5q88 0 159 -24.5t120 -68.5t74.5 -104.5t25.5 -131.5q0 -111 -58.5 -197t-203.5 -156q90 -37 151.5 -78.5t98.5 -89t52 -102.5t15 -121 q0 -176 -116.5 -274t-311.5 -98q-203 0 -320.5 100t-117.5 278zM258 360q0 -147 83 -213.5t226 -66.5q141 0 220 68.5t79 189.5q0 104 -48 174t-179 129l-121 51q-129 -57 -194.5 -131t-65.5 -201zM313 1096q0 -49 9.5 -88t34 -73t65.5 -62.5t106 -57.5l56 -24 q70 33 113.5 67.5t69.5 71.5t35 77t9 87q0 111 -64.5 172t-187.5 61q-119 0 -182.5 -61t-63.5 -170z" />
<glyph unicode="9" d="M127 969q0 111 33 195.5t89 143t133 88t165 29.5q96 0 177 -34.5t140.5 -107.5t93 -182.5t33.5 -256.5q0 -205 -50 -352.5t-143 -250t-226.5 -164t-299.5 -93.5l-26 98q127 31 229.5 74t178 108.5t125 160.5t67.5 230q-55 -53 -134 -92t-177 -39q-80 0 -154 30t-130 87 t-90 140t-34 188zM260 973q0 -176 79 -261t212 -85q92 0 167 37t138 92q2 23 2 47v51q0 250 -84 359.5t-229 109.5q-139 0 -212 -92t-73 -258z" />
<glyph unicode=":" horiz-adv-x="528" d="M158 92q0 47 30.5 78t75.5 31t76 -31t31 -78t-31 -76.5t-76 -29.5t-75.5 29.5t-30.5 76.5zM158 680q0 45 30.5 75.5t75.5 30.5t76 -30.5t31 -75.5q0 -47 -31 -78t-76 -31t-75.5 31t-30.5 78z" />
<glyph unicode=";" horiz-adv-x="528" d="M154 -154q43 16 74.5 53.5t31.5 86.5q-37 2 -69.5 28.5t-32.5 79.5q0 47 30.5 77t71.5 30q47 0 81 -38t34 -110q0 -94 -44 -171t-151 -105zM158 680q0 45 30.5 75.5t75.5 30.5t76 -30.5t31 -75.5q0 -47 -31 -78t-76 -31t-75.5 31t-30.5 78z" />
<glyph unicode="&#x3c;" d="M289 618v50l483 401l62 -86l-404 -340l404 -340l-62 -88z" />
<glyph unicode="=" d="M168 414v106h786v-106h-786zM168 766v106h786v-106h-786z" />
<glyph unicode="&#x3e;" d="M293 303l403 340l-403 340l61 86l484 -401v-50l-484 -403z" />
<glyph unicode="?" horiz-adv-x="868" d="M98 1321q59 41 142.5 72.5t175.5 31.5q141 0 230 -71.5t89 -233.5q0 -74 -16.5 -126t-44 -90t-62 -66.5t-71.5 -57.5q-33 -25 -54.5 -47t-34 -46.5t-17.5 -54.5t-5 -73v-178h-111v186q0 63 11.5 107.5t31 77t47 58.5t60.5 50q27 20 52.5 43t45 51.5t30.5 67.5t11 94 q0 109 -45 155t-153 46q-72 0 -142.5 -27.5t-120.5 -60.5zM272 90q0 45 31 76t74 31q45 0 74.5 -31t29.5 -76t-29.5 -74.5t-74.5 -29.5q-43 0 -74 29.5t-31 74.5z" />
<glyph unicode="@" horiz-adv-x="1640" d="M123 422q0 172 46 325.5t139 268t232.5 182.5t323.5 68q176 0 300 -56.5t203 -152.5t115 -227.5t36 -280.5q0 -274 -80 -419.5t-258 -145.5q-111 0 -168.5 54t-65.5 146q-29 -33 -61.5 -63.5t-70.5 -55t-80 -40t-89 -15.5q-41 0 -75.5 14.5t-62.5 47t-43 86t-15 129.5 q0 47 7 103t21 122q51 227 140.5 327.5t228.5 100.5q76 0 130 -35t87 -67l16 77h119l-127 -600q-12 -55 -12 -98q0 -137 119 -137t170 115.5t51 353.5q0 137 -25.5 250.5t-87 195.5t-164 127t-258.5 45q-164 0 -280.5 -60t-193.5 -161.5t-112.5 -238t-35.5 -285.5 q0 -154 24.5 -272.5t83 -198.5t155.5 -122t243 -42q92 0 158.5 12.5t125.5 30.5l27 -88q-68 -23 -140.5 -38t-168.5 -15q-168 0 -287 50t-194.5 144t-110.5 230.5t-35 308.5zM569 262q0 -88 28 -119.5t75 -31.5q72 0 139.5 48t128.5 111l104 486q-35 35 -80.5 62.5 t-107.5 27.5q-47 0 -85 -17.5t-68.5 -57.5t-55 -107.5t-45.5 -165.5q-33 -150 -33 -236z" />
<glyph unicode="A" horiz-adv-x="1136" d="M61 0l441 1407h141l430 -1407h-139l-133 453h-469l-139 -453h-132zM367 563h401l-119 400q-35 117 -50 188.5t-26 130.5h-4q-10 -59 -27.5 -133t-52.5 -186z" />
<glyph unicode="B" horiz-adv-x="1128" d="M190 0v1407h375q106 0 180 -28.5t120 -79t65.5 -118t19.5 -145.5q0 -111 -36.5 -182.5t-139.5 -108.5q106 -29 174 -114.5t68 -243.5q0 -102 -32 -176t-89 -121t-137 -68.5t-176 -21.5h-392zM317 788h256q139 0 191.5 61.5t52.5 186.5q0 123 -54 192.5t-196 69.5h-250 v-510zM319 109h254q168 0 237 71.5t69 212.5q0 147 -68 217t-233 70h-259v-571z" />
<glyph unicode="C" horiz-adv-x="1105" d="M139 696q0 172 30 308.5t92.5 229.5t159.5 142t234 49q104 0 186.5 -28.5t145.5 -79.5l-63 -92q-53 41 -119 66.5t-150 25.5q-109 0 -181.5 -39t-115.5 -116t-61 -191.5t-18 -268.5q0 -156 17 -270.5t62 -190t119 -113.5t189 -38q92 0 160.5 33t121.5 74l64 -95 q-66 -53 -152.5 -87.5t-195.5 -34.5q-141 0 -240.5 47t-162 137t-92.5 224t-30 308z" />
<glyph unicode="D" horiz-adv-x="1202" d="M190 0v1407h318q150 0 255 -39t171.5 -125t97.5 -224t31 -335q0 -190 -32 -321.5t-98.5 -212t-170 -115.5t-248.5 -35h-324zM319 111h203q119 0 197 31.5t124 101t64.5 179t18.5 267.5q0 164 -17.5 279.5t-62.5 188.5t-124 106.5t-200 33.5h-203v-1187z" />
<glyph unicode="E" horiz-adv-x="1032" d="M201 0v1407h696v-111h-567v-501h461v-111h-461v-573h592v-111h-721z" />
<glyph unicode="F" horiz-adv-x="995" d="M201 0v1407h684v-111h-555v-501h458v-109h-458v-686h-129z" />
<glyph unicode="G" horiz-adv-x="1222" d="M139 696q0 164 29 299t90 230.5t157.5 147.5t233.5 52q111 0 197 -30.5t155 -91.5l-65 -95q-70 55 -135.5 81t-151.5 26q-106 0 -178 -41t-115 -120t-60 -192.5t-17 -261.5q0 -307 79.5 -460.5t278.5 -153.5q86 0 158.5 30.5t128.5 82.5v422h-301v110h428v-731h-88 l-25 104q-57 -53 -133 -88.5t-172 -35.5q-254 0 -374 180t-120 536z" />
<glyph unicode="H" horiz-adv-x="1247" d="M201 0v1407h129v-600h585v600h132v-1407h-132v694h-585v-694h-129z" />
<glyph unicode="I" horiz-adv-x="673" d="M127 0v74l145 12v1235l-145 12v74h420v-74l-146 -12v-1235l146 -12v-74h-420z" />
<glyph unicode="J" horiz-adv-x="536" d="M8 -188q53 29 90 55.5t60.5 61t35 87t11.5 131.5v1260h131v-1231q0 -104 -13.5 -175t-46 -120t-88 -85t-137.5 -72z" />
<glyph unicode="K" horiz-adv-x="1085" d="M201 0v1407h129v-1407h-129zM369 758l485 649h143l-483 -643l498 -764h-148z" />
<glyph unicode="L" horiz-adv-x="954" d="M201 0v1407h129v-1296h522v-111h-651z" />
<glyph unicode="M" horiz-adv-x="1468" d="M201 0v1407h194l273 -786q27 -78 44 -145.5t21 -113.5h4q2 23 5 46.5t9.5 53.5t17.5 68.5t30 90.5l276 786h193v-1407h-129v950q0 147 3 229.5t5 131.5h-2q-10 -47 -34 -132t-67 -204l-251 -703h-125l-250 691q-23 63 -37 110t-25.5 87t-19.5 76t-19 75h-2 q2 -78 5.5 -163t3.5 -198v-950h-123z" />
<glyph unicode="N" horiz-adv-x="1243" d="M201 0v1407h145l463 -948q45 -92 73.5 -164t51.5 -139h4q-8 72 -12 153.5t-4 188.5v909h120v-1407h-143l-446 907q-59 117 -89 197t-53 145h-4q8 -72 11.5 -165t3.5 -216v-868h-121z" />
<glyph unicode="O" horiz-adv-x="1275" d="M139 696q0 354 126 541.5t372 187.5q248 0 374 -185t126 -535q0 -358 -119 -541.5t-377 -183.5q-260 0 -381 180t-121 536zM276 702q0 -311 83 -464.5t280 -153.5t278.5 152.5t81.5 457.5q0 313 -84 470t-276 157q-193 0 -278 -153.5t-85 -465.5z" />
<glyph unicode="P" horiz-adv-x="1085" d="M201 0v1407h352q213 0 316.5 -104.5t103.5 -301.5q0 -207 -100.5 -314t-297.5 -107h-245v-580h-129zM330 688h231q139 0 207 70.5t68 236.5q0 162 -68 231.5t-223 69.5h-215v-608z" />
<glyph unicode="Q" horiz-adv-x="1280" d="M139 696q0 354 126 541.5t372 187.5q248 0 374 -185t126 -535q0 -324 -91.5 -496t-297.5 -205l415 -121l-41 -119l-635 230q-80 29 -144 80t-109.5 134t-70 202.5t-24.5 285.5zM276 702q0 -311 83 -464.5t280 -153.5t278.5 152.5t81.5 457.5q0 313 -84 470t-276 157 q-193 0 -278 -153.5t-85 -465.5z" />
<glyph unicode="R" horiz-adv-x="1146" d="M201 0v1407h358q90 0 166 -22.5t130 -68.5t85 -118t31 -172q0 -311 -262 -375q51 -20 93 -66t81 -151l161 -434h-139l-155 416q-25 63 -49.5 103t-54.5 62.5t-66.5 32t-85.5 9.5h-164v-623h-129zM330 729h227q158 0 219.5 75t61.5 220q0 135 -64.5 203.5t-224.5 68.5 h-219v-567z" />
<glyph unicode="S" horiz-adv-x="1050" d="M76 143l65 93q72 -68 154 -107t192 -39q156 0 223.5 70.5t67.5 197.5q0 72 -18.5 120t-55 84t-91 63.5t-124.5 56.5q-78 33 -140 66.5t-105 78.5t-66.5 106.5t-23.5 147.5q0 168 102 256t268 88q115 0 189.5 -24.5t138.5 -69.5l-55 -100q-59 41 -122 63.5t-145 22.5 q-109 0 -179 -55.5t-70 -176.5q0 -61 15 -103t46 -72.5t79 -56.5t116 -52q86 -35 154.5 -72t117.5 -86t75.5 -115.5t26.5 -165.5q0 -78 -22.5 -147.5t-71.5 -121.5t-128.5 -82.5t-192.5 -30.5q-133 0 -241 46t-179 117z" />
<glyph unicode="T" horiz-adv-x="1015" d="M96 1296v111h822v-111h-347v-1296h-129v1296h-346z" />
<glyph unicode="U" horiz-adv-x="1245" d="M193 397v1010h129v-987q0 -178 57 -253t190 -75q61 0 113.5 14.5t95.5 36t77 47t58 48.5v1169h131v-1407h-92l-30 137q-61 -59 -150.5 -108t-210.5 -49q-78 0 -145.5 22.5t-116.5 71.5t-77.5 129t-28.5 194z" />
<glyph unicode="V" horiz-adv-x="1114" d="M66 1407h139l282 -963q25 -86 41.5 -159.5t26.5 -126.5h4q10 53 27.5 124.5t44.5 161.5l287 963h131l-428 -1407h-134z" />
<glyph unicode="W" horiz-adv-x="1628" d="M74 1407h137l192 -922q23 -113 38.5 -202.5t25.5 -161.5h2q12 72 26.5 163t36.5 193l218 930h149l209 -932q20 -94 34.5 -187t24.5 -167h2q10 74 26.5 170t39.5 201l190 915h129l-305 -1407h-166l-204 911q-20 92 -36 187.5t-22 150.5h-4q-4 -25 -9 -64.5t-13.5 -85.5 t-17.5 -94.5t-17 -89.5l-213 -915h-166z" />
<glyph unicode="X" horiz-adv-x="1091" d="M53 0l418 766l-344 641h143l277 -535l282 535h138l-344 -629l415 -778h-143l-348 670l-354 -670h-140z" />
<glyph unicode="Y" horiz-adv-x="1085" d="M74 1407h147l252 -549q29 -61 45.5 -105t30.5 -89q16 45 30.5 88t43.5 106l251 549h138l-402 -856v-551h-131v555z" />
<glyph unicode="Z" horiz-adv-x="978" d="M92 0v100l641 1196h-606v111h752v-107l-639 -1189h637v-111h-785z" />
<glyph unicode="[" horiz-adv-x="626" d="M188 -315v1818h340v-100h-215v-1620h215v-98h-340z" />
<glyph unicode="\" horiz-adv-x="729" d="M53 1554h117l504 -1853h-115z" />
<glyph unicode="]" horiz-adv-x="624" d="M96 -217h217v1620h-217v100h340v-1818h-340v98z" />
<glyph unicode="^" horiz-adv-x="952" d="M129 922l293 528h110l293 -528h-123l-225 407l-223 -407h-125z" />
<glyph unicode="_" horiz-adv-x="618" d="M6 -154h606v-106h-606v106z" />
<glyph unicode="`" horiz-adv-x="1007" d="M266 1309l68 112l340 -241l-45 -72z" />
<glyph unicode="a" horiz-adv-x="968" d="M117 274q0 160 100 238t328 78h125v110q0 92 -32 142.5t-130 50.5q-82 0 -153.5 -27.5t-139.5 -70.5l-49 90q72 47 154.5 80.5t197.5 33.5q135 0 205 -67.5t70 -214.5v-717h-86l-31 119q-20 -25 -47 -49.5t-62 -44t-75.5 -32.5t-88.5 -13q-135 0 -210.5 75.5t-75.5 218.5 zM246 272q0 -102 42 -146t130 -44t150.5 44t101.5 91v279h-113q-92 0 -152.5 -12.5t-95.5 -40t-49 -69.5t-14 -102z" />
<glyph unicode="b" horiz-adv-x="1048" d="M182 0v1464h123v-608q51 53 124 98t161 45q74 0 134 -27.5t104 -88t69 -157.5t25 -237q0 -266 -87 -387.5t-253 -121.5q-92 0 -165 41.5t-120 95.5l-29 -117h-86zM305 207q53 -53 116.5 -87t137.5 -34q57 0 101.5 18.5t73 64.5t44 121t15.5 189q0 123 -14.5 203t-42 127 t-68.5 65.5t-97 18.5q-84 0 -148.5 -43t-117.5 -92v-551z" />
<glyph unicode="c" horiz-adv-x="878" d="M119 487q0 139 28.5 236.5t78.5 159t121 89t155 27.5q92 0 155.5 -29.5t118.5 -84.5l-74 -84q-43 47 -88 70.5t-116 23.5q-61 0 -107.5 -19.5t-78 -65.5t-48 -124t-16.5 -194q0 -117 16.5 -196t48 -126t80.5 -66.5t115 -19.5q78 0 125 30.5t82 67.5l80 -76 q-49 -55 -119 -90.5t-174 -35.5q-84 0 -155 27.5t-122 89t-78.5 157.5t-27.5 233z" />
<glyph unicode="d" horiz-adv-x="1048" d="M127 489q0 266 86 388t252 122q92 0 161.5 -43t116.5 -92v600h121v-1464h-86l-28 125q-55 -59 -129 -102t-162 -43q-74 0 -135.5 26.5t-104.5 87t-67.5 157.5t-24.5 238zM254 500q0 -123 14.5 -203t42 -127t69.5 -65.5t97 -18.5q84 0 147.5 40t118.5 91v549 q-53 55 -116.5 91t-139.5 36q-57 0 -101 -18.5t-72.5 -64.5t-44 -122t-15.5 -188z" />
<glyph unicode="e" horiz-adv-x="962" d="M119 487q0 139 27.5 236.5t77.5 159t119 89t151 27.5q172 0 261 -112.5t89 -364.5v-51h-596q2 -111 18.5 -185.5t48 -119.5t81.5 -63.5t120 -18.5q86 0 141.5 25.5t102.5 62.5l67 -86q-63 -51 -136 -78.5t-175 -27.5q-88 0 -160.5 26.5t-125 86t-82 156.5t-29.5 238z M250 567h467q0 94 -14.5 157.5t-42 102.5t-69.5 55.5t-99 16.5q-51 0 -93.5 -15.5t-74 -54t-50 -102t-24.5 -160.5z" />
<glyph unicode="f" horiz-adv-x="600" d="M80 879v100h117v242q0 137 67.5 197.5t163.5 60.5q59 0 104.5 -11.5t88.5 -40.5l-48 -90q-33 16 -63.5 26.5t-69.5 10.5q-59 0 -90 -37t-31 -118v-240h199v-100h-199v-879h-122v879h-117z" />
<glyph unicode="g" horiz-adv-x="952" d="M88 -147q0 86 43 140t98 93q-82 39 -82 133q0 72 36 121t79 86q-59 39 -94 103.5t-35 154.5q0 154 94.5 234.5t243.5 80.5q39 0 71.5 -5t61.5 -15h285v-76l-146 -24q59 -82 60 -195q0 -154 -92.5 -232.5t-239.5 -78.5q-76 0 -135 20q-29 -29 -51.5 -68.5t-22.5 -80.5 q0 -29 18.5 -47.5t65.5 -18.5h197q158 0 243.5 -69.5t85.5 -208.5q0 -150 -102 -236t-301 -86q-197 0 -289 77t-92 198zM211 -139q0 -41 11 -75t41 -58.5t79 -38t125 -13.5q281 0 281 222q0 165 -189 165h-2h-240q-47 -35 -76.5 -83t-29.5 -119zM258 680q0 -119 58.5 -167 t150.5 -48q98 0 154.5 52t56.5 171q0 121 -54.5 167t-154.5 46q-96 0 -153.5 -50t-57.5 -171z" />
<glyph unicode="h" horiz-adv-x="1032" d="M182 0v1464h123v-618q72 68 145.5 110.5t165.5 42.5q104 0 173 -61t69 -190v-748h-123v715q0 98 -35.5 137t-111.5 39q-74 0 -145.5 -41t-137.5 -100v-750h-123z" />
<glyph unicode="i" horiz-adv-x="555" d="M102 901v78h263v-979h-123v883zM199 1298q0 41 25.5 69t66.5 28t67.5 -28t26.5 -69t-26.5 -67.5t-67.5 -26.5t-66.5 26.5t-25.5 67.5z" />
<glyph unicode="j" horiz-adv-x="555" d="M90 -342q43 25 71.5 49.5t47 56t26 74.5t7.5 107v938l-140 18v78h263v-1036q0 -90 -14.5 -149.5t-42 -99.5t-70.5 -66.5t-99 -53.5zM199 1298q0 41 25.5 69t66.5 28t67.5 -28t26.5 -69t-26.5 -67.5t-67.5 -26.5t-66.5 26.5t-25.5 67.5z" />
<glyph unicode="k" horiz-adv-x="927" d="M182 0v1464h123v-1464h-123zM344 553l350 426h142l-353 -424l404 -555h-146z" />
<glyph unicode="l" horiz-adv-x="518" d="M184 176v1288h123v-1300q0 -47 17.5 -63.5t52.5 -16.5q25 0 43 6l20 -88q-20 -8 -44.5 -13t-51.5 -5q-72 0 -116 42t-44 150z" />
<glyph unicode="m" horiz-adv-x="1525" d="M182 0v979h86l29 -135q70 66 141.5 110.5t159.5 44.5q82 0 136 -39.5t81 -111.5q76 68 148.5 109.5t156.5 41.5q102 0 166 -60t64 -189v-750h-123v717q0 98 -32 136t-101 38q-70 0 -135.5 -36t-131.5 -93v-762h-122v717q0 98 -32 136t-102 38q-72 0 -136 -39t-130 -96 v-756h-123z" />
<glyph unicode="n" horiz-adv-x="1032" d="M182 0v979h86l29 -141q72 72 149.5 116.5t169.5 44.5q104 0 173 -61t69 -190v-748h-123v715q0 98 -35.5 137t-111.5 39q-74 0 -145.5 -41t-137.5 -100v-750h-123z" />
<glyph unicode="o" horiz-adv-x="1019" d="M119 487q0 137 28.5 234.5t80 159t122 90t156.5 28.5q84 0 156.5 -28.5t125 -90t82 -157.5t29.5 -234q0 -135 -28.5 -232t-80 -158.5t-123 -90t-157.5 -28.5t-157.5 28.5t-124 90t-81 157.5t-28.5 231zM248 492q0 -117 17.5 -196t50 -127t82 -69.5t112.5 -21.5 t112.5 20.5t82 67.5t49 126t16.5 193q0 117 -17.5 196t-50 128t-82 70.5t-112.5 21.5t-112.5 -20.5t-82 -68.5t-49 -126t-16.5 -194z" />
<glyph unicode="p" horiz-adv-x="1048" d="M182 -418v1397h86l29 -131q55 61 130 106t163 45q74 0 134 -27.5t104 -88t69 -157.5t25 -237q0 -266 -87 -387.5t-253 -121.5q-92 0 -161 39.5t-116 89.5v-527h-123zM305 207q53 -53 116.5 -87t137.5 -34q57 0 101.5 18.5t73 64.5t44 121t15.5 189q0 123 -14.5 203 t-42 127t-68.5 65.5t-97 18.5q-84 0 -148.5 -43t-117.5 -92v-551z" />
<glyph unicode="q" horiz-adv-x="1048" d="M127 489q0 266 86 388t252 122q92 0 164.5 -45t120.5 -96l28 121h86v-1397h-121v537q-53 -55 -124.5 -97t-159.5 -42q-74 0 -135.5 26.5t-104.5 87t-67.5 157.5t-24.5 238zM254 500q0 -123 14.5 -203t42 -127t69.5 -65.5t97 -18.5q84 0 147.5 40t118.5 91v549 q-53 55 -116.5 91t-139.5 36q-57 0 -101 -18.5t-72.5 -64.5t-44 -122t-15.5 -188z" />
<glyph unicode="r" horiz-adv-x="688" d="M182 0v979h86l29 -166q61 76 135 128t162 52q8 0 18.5 -1t12.5 -3l-13 -131q-12 6 -43 6q-76 0 -137 -36.5t-127 -108.5v-719h-123z" />
<glyph unicode="s" horiz-adv-x="837" d="M80 86l53 88q57 -41 120.5 -66.5t143.5 -25.5q111 0 158 46t47 126q0 45 -11 74.5t-37 53.5t-68 41t-105 38q-55 16 -101.5 38.5t-80 56.5t-53 81t-19.5 113q0 51 17.5 97t53 80t90 53t128.5 19q90 0 152.5 -19t113.5 -48l-45 -96q-53 29 -102.5 44t-116.5 15 q-84 0 -129 -35t-45 -108q0 -41 10 -68t31.5 -46.5t57.5 -34.5t87 -32q61 -20 114.5 -42.5t92.5 -56.5t61.5 -85t22.5 -127q0 -143 -86 -211.5t-240 -68.5q-98 0 -180 31.5t-135 74.5z" />
<glyph unicode="t" horiz-adv-x="636" d="M84 879v100h119v258l121 29v-287h204v-100h-204v-709q0 -90 82 -90q39 0 66.5 9t47.5 20l31 -91q-31 -16 -66.5 -27t-85.5 -11q-84 0 -140 41.5t-56 142.5v715h-119z" />
<glyph unicode="u" horiz-adv-x="1036" d="M174 238v741h121v-709q0 -100 39 -141t112 -41q74 0 145 38t138 93v760h123v-979h-88l-29 131q-70 -66 -145.5 -108.5t-167.5 -42.5q-106 0 -177 63t-71 195z" />
<glyph unicode="v" horiz-adv-x="925" d="M76 979h131l194 -619q20 -63 37 -134.5t27 -119.5h2q8 47 25.5 119t37.5 137l193 617h127l-328 -979h-125z" />
<glyph unicode="w" horiz-adv-x="1382" d="M84 979h129l152 -612q8 -33 15 -70t13 -70.5t10.5 -59.5t6.5 -34h2q2 8 6 34t10 57.5t14.5 67.5t16.5 66l170 621h135l164 -612q8 -33 16 -70t14.5 -70.5t11.5 -59.5t7 -34h2q2 8 6 35t11.5 59.5t14.5 68.5t15 66l152 617h122l-258 -979h-131l-174 645 q-16 57 -26.5 119.5t-16.5 97.5h-2q-6 -35 -17 -96t-28 -121l-178 -645h-129z" />
<glyph unicode="x" horiz-adv-x="903" d="M70 0l315 532l-270 447h139l115 -197q14 -27 26.5 -46t20.5 -38l18 -36q10 -18 21 -44h4q23 47 37 80t43 84l112 197h135l-270 -444l318 -535h-140l-147 260q-35 59 -56.5 99t-39.5 83h-5q-18 -41 -37.5 -78.5t-56.5 -101.5l-149 -262h-133z" />
<glyph unicode="y" horiz-adv-x="927" d="M76 979h131l190 -627q23 -78 39.5 -145.5t26.5 -120.5h2q10 53 28.5 118.5t43.5 147.5l188 627h127l-324 -1022q-33 -102 -66.5 -166.5t-75.5 -106.5t-97.5 -66t-128.5 -44l-31 96q66 20 112 45t79.5 62t59.5 91t48 132h-43z" />
<glyph unicode="z" horiz-adv-x="862" d="M109 0v113l509 766h-466v100h593v-113l-507 -766h524v-100h-653z" />
<glyph unicode="{" horiz-adv-x="755" d="M92 543v108q102 0 146.5 37t44.5 135v453q0 121 64.5 174t164.5 53h145v-100h-135q-66 0 -90 -34t-24 -105v-447q0 -59 -11.5 -98t-31 -63.5t-45 -37t-56.5 -18.5v-4q31 -6 56.5 -19.5t45 -38t31 -63.5t11.5 -98v-455q0 -72 24.5 -105.5t89.5 -33.5h135v-98h-145 q-100 0 -164.5 52t-64.5 173v461q0 98 -43 135t-148 37z" />
<glyph unicode="|" horiz-adv-x="485" d="M193 -299v1853h100v-1853h-100z" />
<glyph unicode="}" horiz-adv-x="755" d="M96 -217h137q66 0 90.5 33.5t24.5 105.5v455q0 59 11.5 98t31 63.5t45 38t56.5 19.5v4q-31 6 -56.5 18.5t-45 37t-31 63.5t-11.5 98v447q0 72 -24.5 105.5t-90.5 33.5h-137v100h146q102 0 166.5 -53t64.5 -174v-453q0 -98 43 -135t148 -37v-108q-104 0 -147.5 -37 t-43.5 -135v-461q0 -121 -64.5 -173t-166.5 -52h-146v98z" />
<glyph unicode="~" horiz-adv-x="995" d="M141 598q45 92 96.5 138t120.5 46q45 0 83 -16t72 -36.5t65.5 -37t64.5 -16.5q47 0 74.5 34.5t56.5 82.5l80 -45q-45 -94 -95 -139.5t-122 -45.5q-45 0 -83 16.5t-71.5 36t-65.5 36t-65 16.5q-47 0 -74.5 -34t-56.5 -81z" />
<glyph unicode="&#xa1;" horiz-adv-x="516" d="M152 889q0 45 29.5 75.5t76.5 30.5q43 0 73.5 -30.5t30.5 -75.5q0 -47 -30.5 -78t-73.5 -31q-47 0 -76.5 31t-29.5 78zM186 -406l25 1006h96l25 -1006h-146z" />
<glyph unicode="&#xa2;" d="M236 487q0 127 24.5 219.5t67.5 154t104.5 94t134.5 40.5v234h97v-232q80 -4 136 -33.5t107 -78.5l-69 -80q-39 41 -79 63.5t-97 26.5v-815q68 6 111.5 36.5t76.5 65.5l78 -73q-47 -53 -110.5 -87t-153.5 -40v-218h-97v220q-147 16 -239 135t-92 368zM365 492 q0 -207 50 -299.5t154 -108.5v809q-51 -6 -89 -30.5t-63.5 -73t-38.5 -121t-13 -176.5z" />
<glyph unicode="&#xa3;" d="M160 651v107h149q-23 72 -39 147.5t-16 155.5q0 90 28.5 157.5t78 113.5t118 69.5t148.5 23.5q111 0 189.5 -30.5t164.5 -89.5l-53 -88q-35 25 -67 43t-66.5 31.5t-73.5 20.5t-88 7q-117 0 -181.5 -63.5t-64.5 -188.5q0 -76 17.5 -153.5t39.5 -155.5h383v-107h-354 q14 -59 24.5 -116.5t10.5 -116.5q0 -86 -33 -168t-121 -141h621v-109h-778v115q104 55 146 125.5t42 175.5q0 59 -12.5 117.5t-30.5 117.5h-182z" />
<glyph unicode="&#xa4;" d="M104 1065l80 74l142 -162q94 88 235 88q139 0 238 -88l141 162l80 -76l-152 -174q59 -100 60 -256q0 -158 -60 -260l156 -176l-80 -72l-145 162q-96 -86 -234 -86q-141 0 -235 86l-144 -164l-80 76l154 174q-59 102 -59 258t57 258zM328 635q0 -178 61 -255t176 -77 q117 0 176.5 75t59.5 251q0 178 -61.5 256t-176.5 78q-117 0 -176 -75t-59 -253z" />
<glyph unicode="&#xa5;" d="M106 1407h146l237 -502q29 -59 45.5 -103t30.5 -91q16 47 30.5 91t43.5 103l240 502h139l-281 -565h273v-99h-322l-61 -127v-75h383v-99h-383v-442h-129v442h-383v99h383v77l-62 125h-321v99h272z" />
<glyph unicode="&#xa6;" horiz-adv-x="485" d="M193 -299v811h100v-811h-100zM193 739v815h100v-815h-100z" />
<glyph unicode="&#xa7;" d="M139 649q0 102 54 173t169 104q-53 39 -78.5 93t-25.5 136q0 57 19.5 106.5t59.5 86t101.5 57t143.5 20.5q98 0 167.5 -24.5t129.5 -63.5l-50 -92q-59 37 -113 57.5t-132 20.5q-113 0 -159 -44t-46 -120q0 -47 11 -78.5t40 -55.5t78 -43t125 -42q78 -25 142.5 -51.5 t111.5 -65.5t73.5 -94t26.5 -137q0 -113 -58.5 -181.5t-168.5 -101.5q59 -41 91 -98t32 -139q0 -141 -87 -215t-247 -74q-121 0 -207 37t-135 84l57 86q53 -47 117.5 -77t169.5 -30q109 0 158 45t49 140q0 47 -16.5 79.5t-51.5 59t-87 48t-126 46.5q-80 25 -142.5 54.5 t-105.5 69.5t-66.5 94t-23.5 130zM258 647q0 -49 15.5 -83t47 -60.5t82 -48t119.5 -43.5q35 -10 67.5 -21.5t61.5 -23.5q113 20 163 76.5t50 146.5q0 55 -16.5 91t-51 61.5t-87 44t-123.5 40.5q-33 10 -61.5 20.5t-53.5 20.5q-117 -18 -165 -76.5t-48 -144.5z" />
<glyph unicode="&#xa8;" horiz-adv-x="1112" d="M289 1223q0 41 25.5 66.5t64.5 25.5t65.5 -25.5t26.5 -66.5t-25.5 -67t-64.5 -26t-65.5 26t-26.5 67zM639 1223q0 41 25.5 66.5t64.5 25.5t65.5 -25.5t26.5 -66.5t-25.5 -67t-64.5 -26t-65.5 26t-26.5 67z" />
<glyph unicode="&#xa9;" horiz-adv-x="1480" d="M129 713q0 168 44 304t124 232.5t192.5 148.5t251.5 52q137 0 250 -52t193 -148.5t124 -232.5t44 -304q0 -170 -44 -305.5t-124 -231.5t-193 -147.5t-250 -51.5q-139 0 -251.5 51.5t-192.5 147.5t-124 231.5t-44 305.5zM223 713q0 -152 35 -274t101.5 -207t162.5 -131 t219 -46t219.5 46t162 131t100 207t34.5 274t-34.5 273.5t-100 206.5t-162 131t-219.5 46t-219 -46t-162.5 -131t-101.5 -207t-35 -273zM414 707q0 240 86 349t250 109q143 0 235 -100l-67 -72q-39 39 -78 57.5t-95 18.5q-57 0 -96 -18.5t-63.5 -61.5t-35.5 -111.5 t-11 -168.5t11 -169t36.5 -112t67.5 -61.5t102 -18.5q55 0 95 23.5t75 58.5l69 -70q-45 -49 -104 -77.5t-139 -28.5q-338 0 -338 453z" />
<glyph unicode="&#xaa;" horiz-adv-x="892" d="M115 657q0 147 93 218t302 71h111v98q0 80 -29 126.5t-119 46.5q-72 0 -138.5 -26t-127.5 -65l-45 88q66 45 141.5 75t179.5 30q127 0 190.5 -61.5t63.5 -196.5v-655h-84l-26 108q-35 -45 -97.5 -86t-148.5 -41q-127 0 -196.5 69.5t-69.5 200.5zM240 655q0 -92 38.5 -132 t116.5 -40t134.5 40t91.5 81v254h-99q-84 0 -138 -12t-87 -37t-45 -62.5t-12 -91.5z" />
<glyph unicode="&#xab;" horiz-adv-x="952" d="M117 504l270 422l92 -62l-229 -360l229 -359l-92 -61zM463 504l272 422l92 -62l-229 -360l227 -359l-90 -61z" />
<glyph unicode="&#xac;" d="M242 662v106h626v-393h-118v287h-508z" />
<glyph unicode="&#xad;" horiz-adv-x="598" d="M115 487v123h366v-123h-366z" />
<glyph unicode="&#xae;" horiz-adv-x="1107" d="M121 940q0 119 31.5 214t89 159.5t136.5 99.5t175 35t176 -35t136.5 -99.5t88 -159.5t31.5 -214q0 -121 -31.5 -216t-88 -159.5t-136.5 -98.5t-176 -34t-175 34t-136.5 98.5t-89 159.5t-31.5 216zM209 940q0 -211 89 -320.5t255 -109.5q164 0 254 109.5t90 320.5 t-90 320.5t-254 109.5q-166 0 -255 -109.5t-89 -320.5zM387 657v578h166q186 0 186 -162q0 -68 -26.5 -102.5t-79.5 -50.5q47 -14 74 -97l55 -166h-100l-54 166q-16 47 -33.5 62.5t-46.5 15.5h-49v-244h-92zM479 973h74q51 0 70.5 23.5t19.5 72.5q0 45 -20.5 66.5 t-69.5 21.5h-74v-184z" />
<glyph unicode="&#xaf;" horiz-adv-x="1112" d="M319 1210v103h472v-103h-472z" />
<glyph unicode="&#xb0;" horiz-adv-x="772" d="M90 1087q0 78 22.5 140.5t61.5 105.5t93.5 65.5t115.5 22.5q129 0 213 -88t84 -243q0 -78 -22.5 -138.5t-62.5 -103.5t-94.5 -65.5t-115.5 -22.5q-63 0 -117.5 22.5t-93.5 64.5t-61.5 102.5t-22.5 137.5zM201 1094q0 -135 50 -191.5t136 -56.5t133 57.5t47 181.5 q0 135 -49 191.5t-133 56.5q-86 0 -135 -56t-49 -183z" />
<glyph unicode="&#xb1;" d="M176 61v107h772v-107h-772zM176 575v105h328v326h117v-326h327v-105h-327v-292h-117v292h-328z" />
<glyph unicode="&#xb2;" horiz-adv-x="724" d="M113 451v94q125 104 201.5 180t119.5 134.5t57.5 105.5t14.5 96q0 86 -42 127t-118 41q-59 0 -101 -15.5t-93 -44.5l-39 80q53 33 109.5 52.5t131.5 19.5q117 0 190.5 -64.5t73.5 -191.5q0 -57 -17 -113.5t-60 -118t-117 -133t-184 -161.5h395v-88h-522z" />
<glyph unicode="&#xb3;" horiz-adv-x="741" d="M59 418l27 80q45 -18 97.5 -31.5t117.5 -13.5q211 0 211 190q0 53 -15.5 89t-43 57.5t-64.5 30.5t-82 9h-76v86h70q92 0 136 42t44 118q0 74 -40 115t-126 41q-57 0 -104 -16.5t-90 -38.5l-35 77q53 31 110.5 49.5t135.5 18.5q125 0 192.5 -65.5t67.5 -165.5 q0 -86 -40 -137.5t-106 -73.5q80 -20 130.5 -78t50.5 -164q0 -127 -81 -201t-235 -74q-78 0 -141.5 16.5t-110.5 39.5z" />
<glyph unicode="&#xb4;" horiz-adv-x="1009" d="M334 1180l340 241l67 -112l-360 -201z" />
<glyph unicode="&#xb5;" horiz-adv-x="1028" d="M182 -418v1397h123v-795q33 -53 86 -78.5t111 -25.5q51 0 92 27.5t70.5 70.5t46 97.5t16.5 107.5v596h123v-813q0 -29 6 -46.5t15.5 -25.5t21.5 -10t22 -2q18 0 48 6l20 -88q-27 -10 -55.5 -14t-53.5 -4q-76 0 -105.5 49t-29.5 135h-4q-37 -78 -97 -132t-153 -54 q-59 0 -105 17t-75 46v-461h-123z" />
<glyph unicode="&#xb6;" horiz-adv-x="1069" d="M119 1079q0 156 83 242t242 86h435v-1585h-117v1481h-168v-1481h-117v930h-24q-154 0 -244 87t-90 240z" />
<glyph unicode="&#xb7;" horiz-adv-x="495" d="M141 692q0 47 31 78t76 31t75.5 -31t30.5 -78q0 -45 -30.5 -75.5t-75.5 -30.5t-76 30.5t-31 75.5z" />
<glyph unicode="&#xb8;" horiz-adv-x="1112" d="M410 -367l41 68q29 -16 52 -25.5t58 -9.5q82 0 82 76q0 80 -82 80q-25 0 -43 -3t-37 -7l80 208h90l-55 -129q72 -4 107.5 -45t35.5 -108q0 -68 -43 -113t-135 -45q-43 0 -83 15.5t-68 37.5z" />
<glyph unicode="&#xb9;" horiz-adv-x="649" d="M96 1153l226 166h84v-784h163v-84h-450v84h174v647l-162 -88z" />
<glyph unicode="&#xba;" horiz-adv-x="925" d="M119 852q0 125 25.5 214t72.5 145.5t112.5 82t143.5 25.5t144.5 -25.5t114.5 -82t75 -144.5t27 -213t-26 -213t-73 -144.5t-112.5 -83t-145.5 -26.5q-78 0 -144.5 25.5t-113.5 82t-73.5 144.5t-26.5 213zM244 854q0 -104 15 -176t44 -116t73 -62.5t101 -18.5t100.5 18.5 t73 61.5t44 113.5t14.5 175.5q0 209 -59.5 291t-174.5 82q-57 0 -100 -17.5t-73 -60.5t-44 -113.5t-14 -177.5z" />
<glyph unicode="&#xbb;" horiz-adv-x="952" d="M123 147l229 359l-227 358l90 62l272 -420l-272 -422zM471 147l229 359l-229 358l92 62l273 -420l-273 -422z" />
<glyph unicode="&#xbc;" horiz-adv-x="1841" d="M96 1153l226 166h84v-784h163v-84h-450v84h174v647l-162 -88zM489 0l781 1300h116l-778 -1300h-119zM1139 133v98l278 625h115l-285 -633h344v373l113 20v-393h102v-90h-102v-209h-113v209h-452z" />
<glyph unicode="&#xbd;" horiz-adv-x="1953" d="M96 1153l226 166h84v-784h163v-84h-450v84h174v647l-162 -88zM489 0l781 1300h116l-778 -1300h-119zM1341 0v94q125 104 202 180t120 134.5t57.5 105.5t14.5 96q0 86 -42 127t-118 41q-59 0 -101 -15t-94 -44l-39 80q53 33 109.5 52t132.5 19q117 0 190.5 -64.5 t73.5 -191.5q0 -57 -17.5 -113.5t-60.5 -117.5t-116.5 -133t-184.5 -162h396v-88h-523z" />
<glyph unicode="&#xbe;" horiz-adv-x="1933" d="M59 418l27 80q45 -18 97.5 -31.5t117.5 -13.5q211 0 211 190q0 53 -15.5 89t-43 57.5t-64.5 30.5t-82 9h-76v86h70q92 0 136 42t44 118q0 74 -40 115t-126 41q-57 0 -104 -16.5t-90 -38.5l-35 77q53 31 110.5 49.5t135.5 18.5q125 0 192.5 -65.5t67.5 -165.5 q0 -86 -40 -137.5t-106 -73.5q80 -20 130.5 -78t50.5 -164q0 -127 -81 -201t-235 -74q-78 0 -141.5 16.5t-110.5 39.5zM582 0l780 1300h117l-779 -1300h-118zM1231 133v98l278 625h115l-285 -633h344v373l113 20v-393h102v-90h-102v-209h-113v209h-452z" />
<glyph unicode="&#xbf;" horiz-adv-x="868" d="M133 -117q0 74 16.5 126t44 90t62.5 67l70 57q33 25 54 46.5t33.5 46t17.5 55t5 73.5v156h113v-166q0 -61 -11.5 -105t-32 -77t-47 -58.5t-59.5 -50.5q-29 -23 -54.5 -44t-44.5 -50t-30.5 -67.5t-11.5 -94.5q0 -111 45 -155.5t154 -44.5q72 0 143.5 26.5t118.5 59.5 l51 -90q-59 -43 -142 -74t-177 -31q-70 0 -128.5 16.5t-100.5 53.5t-65.5 95t-23.5 140zM385 891q0 45 30.5 74.5t73.5 29.5t74 -29.5t31 -74.5q0 -47 -31 -77t-74 -30t-73.5 30t-30.5 77z" />
<glyph unicode="&#xc0;" horiz-adv-x="1136" d="M61 0l441 1407h141l430 -1407h-139l-133 453h-469l-139 -453h-132zM330 1706l67 113l340 -242l-45 -72zM367 563h401l-119 400q-35 117 -50 188.5t-26 130.5h-4q-10 -59 -27.5 -133t-52.5 -186z" />
<glyph unicode="&#xc1;" horiz-adv-x="1136" d="M61 0l441 1407h141l430 -1407h-139l-133 453h-469l-139 -453h-132zM367 563h401l-119 400q-35 117 -50 188.5t-26 130.5h-4q-10 -59 -27.5 -133t-52.5 -186zM397 1577l340 242l68 -113l-361 -201z" />
<glyph unicode="&#xc2;" horiz-adv-x="1136" d="M61 0l441 1407h141l430 -1407h-139l-133 453h-469l-139 -453h-132zM301 1575l229 240h80l231 -240l-51 -62l-221 179l-217 -179zM367 563h401l-119 400q-35 117 -50 188.5t-26 130.5h-4q-10 -59 -27.5 -133t-52.5 -186z" />
<glyph unicode="&#xc3;" horiz-adv-x="1136" d="M61 0l441 1407h141l430 -1407h-139l-133 453h-469l-139 -453h-132zM284 1581q66 150 179 150q33 0 62.5 -12.5t56 -26t52 -25.5t54.5 -12q37 0 56.5 23.5t41.5 58.5l72 -45q-66 -147 -176 -148q-35 0 -64.5 11.5t-56.5 25.5t-53.5 25.5t-53.5 11.5q-37 0 -56 -23.5 t-42 -58.5zM367 563h401l-119 400q-35 117 -50 188.5t-26 130.5h-4q-10 -59 -27.5 -133t-52.5 -186z" />
<glyph unicode="&#xc4;" horiz-adv-x="1136" d="M61 0l441 1407h141l430 -1407h-139l-133 453h-469l-139 -453h-132zM305 1620q0 41 25.5 66.5t64.5 25.5t65.5 -25.5t26.5 -66.5t-25.5 -66.5t-64.5 -25.5t-65.5 25.5t-26.5 66.5zM367 563h401l-119 400q-35 117 -50 188.5t-26 130.5h-4q-10 -59 -27.5 -133t-52.5 -186z M654 1620q0 41 25.5 66.5t64.5 25.5t65.5 -25.5t26.5 -66.5t-25.5 -66.5t-64.5 -25.5t-65.5 25.5t-26.5 66.5z" />
<glyph unicode="&#xc5;" horiz-adv-x="1136" d="M61 0l441 1407h141l430 -1407h-139l-133 453h-469l-139 -453h-132zM367 563h401l-119 400q-35 117 -50 188.5t-26 130.5h-4q-10 -59 -27.5 -133t-52.5 -186zM391 1690q0 74 47 132t131 58q43 0 76 -16.5t56.5 -42t35.5 -60.5t12 -71q0 -37 -12 -72t-35.5 -60.5t-56.5 -42 t-76 -16.5q-84 0 -131 58.5t-47 132.5zM479 1690q0 -59 24.5 -87t65.5 -28t66.5 27.5t25.5 87.5q0 59 -25.5 86.5t-66.5 27.5t-65.5 -27.5t-24.5 -86.5z" />
<glyph unicode="&#xc6;" horiz-adv-x="1726" d="M59 0l775 1407h755v-111h-565v-501h459v-111h-459v-573h590v-111h-721v436h-459l-237 -436h-138zM494 547h399v526q0 57 2 111q2 61 4 129h-4q-14 -37 -52 -115t-100 -190z" />
<glyph unicode="&#xc7;" horiz-adv-x="1105" d="M139 696q0 172 30 308.5t92.5 229.5t159.5 142t234 49q104 0 186.5 -28.5t145.5 -79.5l-63 -92q-53 41 -119 66.5t-150 25.5q-109 0 -181.5 -39t-115.5 -116t-61 -191.5t-18 -268.5q0 -156 17 -270.5t62 -190t119 -113.5t189 -38q92 0 160.5 33t121.5 74l64 -95 q-66 -53 -153 -87.5t-195 -34.5h-33l-39 -89q72 -4 107.5 -45t35.5 -108q0 -68 -43 -113t-135 -45q-43 0 -83 15.5t-68 37.5l40 68q29 -16 52.5 -25.5t58.5 -9.5q82 0 82 76q0 80 -82 80q-25 0 -43 -3t-37 -7l68 178q-215 37 -310.5 217t-95.5 489z" />
<glyph unicode="&#xc8;" horiz-adv-x="1032" d="M201 0v1407h696v-111h-567v-501h461v-111h-461v-573h592v-111h-721zM316 1706l67 113l340 -242l-45 -72z" />
<glyph unicode="&#xc9;" horiz-adv-x="1032" d="M201 0v1407h696v-111h-567v-501h461v-111h-461v-573h592v-111h-721zM375 1577l340 242l68 -113l-361 -201z" />
<glyph unicode="&#xca;" horiz-adv-x="1032" d="M201 0v1407h696v-111h-567v-501h461v-111h-461v-573h592v-111h-721zM277 1575l229 240h80l231 -240l-51 -62l-221 179l-217 -179z" />
<glyph unicode="&#xcb;" horiz-adv-x="1032" d="M201 0v1407h696v-111h-567v-501h461v-111h-461v-573h592v-111h-721zM277 1620q0 41 25.5 66.5t64.5 25.5t65.5 -25.5t26.5 -66.5t-25.5 -66.5t-64.5 -25.5t-65.5 25.5t-26.5 66.5zM625 1620q0 41 25.5 66.5t64.5 25.5t65.5 -25.5t26.5 -66.5t-25.5 -66.5t-64.5 -25.5 t-65.5 25.5t-26.5 66.5z" />
<glyph unicode="&#xcc;" horiz-adv-x="673" d="M103 1706l67 113l340 -242l-45 -72zM127 0v74l145 12v1235l-145 12v74h420v-74l-146 -12v-1235l146 -12v-74h-420z" />
<glyph unicode="&#xcd;" horiz-adv-x="673" d="M127 0v74l145 12v1235l-145 12v74h420v-74l-146 -12v-1235l146 -12v-74h-420zM172 1577l340 242l68 -113l-361 -201z" />
<glyph unicode="&#xce;" horiz-adv-x="673" d="M66 1577l229 240h80l231 -240l-51 -62l-221 179l-217 -179zM127 0v74l145 12v1235l-145 12v74h420v-74l-146 -12v-1235l146 -12v-74h-420z" />
<glyph unicode="&#xcf;" horiz-adv-x="673" d="M74 1620q0 41 25.5 66.5t64.5 25.5t65.5 -25.5t26.5 -66.5t-25.5 -66.5t-64.5 -25.5t-65.5 25.5t-26.5 66.5zM127 0v74l145 12v1235l-145 12v74h420v-74l-146 -12v-1235l146 -12v-74h-420zM422 1620q0 41 25.5 66.5t64.5 25.5t65.5 -25.5t26.5 -66.5t-25.5 -66.5 t-64.5 -25.5t-65.5 25.5t-26.5 66.5z" />
<glyph unicode="&#xd0;" horiz-adv-x="1204" d="M43 643v111h147v653h320q150 0 255 -39t172 -125t97.5 -224t30.5 -335q0 -190 -32 -321.5t-98.5 -212t-169.5 -115.5t-249 -35h-326v643h-147zM319 111h203q119 0 198 31.5t125 101t64.5 179t18.5 267.5q0 164 -17.5 279.5t-63.5 188.5t-125 106.5t-200 33.5h-203v-544 h308v-111h-308v-532z" />
<glyph unicode="&#xd1;" horiz-adv-x="1243" d="M201 0v1407h145l463 -948q45 -92 73.5 -164t51.5 -139h4q-8 72 -12 153.5t-4 188.5v909h120v-1407h-143l-446 907q-59 117 -89 197t-53 145h-4q8 -72 11.5 -165t3.5 -216v-868h-121zM346 1581q66 150 179 150q33 0 62.5 -12.5t56 -26t52 -25.5t54.5 -12q37 0 56.5 23.5 t41.5 58.5l72 -45q-66 -147 -176 -148q-35 0 -64.5 11.5t-56.5 25.5t-53.5 25.5t-53.5 11.5q-37 0 -56 -23.5t-42 -58.5z" />
<glyph unicode="&#xd2;" horiz-adv-x="1275" d="M139 696q0 354 126 541.5t372 187.5q248 0 374 -185t126 -535q0 -358 -119 -541.5t-377 -183.5q-260 0 -381 180t-121 536zM276 702q0 -311 83 -464.5t280 -153.5t278.5 152.5t81.5 457.5q0 313 -84 470t-276 157q-193 0 -278 -153.5t-85 -465.5zM400 1706l67 113 l340 -242l-45 -72z" />
<glyph unicode="&#xd3;" horiz-adv-x="1275" d="M139 696q0 354 126 541.5t372 187.5q248 0 374 -185t126 -535q0 -358 -119 -541.5t-377 -183.5q-260 0 -381 180t-121 536zM276 702q0 -311 83 -464.5t280 -153.5t278.5 152.5t81.5 457.5q0 313 -84 470t-276 157q-193 0 -278 -153.5t-85 -465.5zM467 1577l340 242 l68 -113l-361 -201z" />
<glyph unicode="&#xd4;" horiz-adv-x="1275" d="M139 696q0 354 126 541.5t372 187.5q248 0 374 -185t126 -535q0 -358 -119 -541.5t-377 -183.5q-260 0 -381 180t-121 536zM276 702q0 -311 83 -464.5t280 -153.5t278.5 152.5t81.5 457.5q0 313 -84 470t-276 157q-193 0 -278 -153.5t-85 -465.5zM369 1575l229 240h80 l231 -240l-51 -62l-221 179l-217 -179z" />
<glyph unicode="&#xd5;" horiz-adv-x="1275" d="M139 696q0 354 126 541.5t372 187.5q248 0 374 -185t126 -535q0 -358 -119 -541.5t-377 -183.5q-260 0 -381 180t-121 536zM276 702q0 -311 83 -464.5t280 -153.5t278.5 152.5t81.5 457.5q0 313 -84 470t-276 157q-193 0 -278 -153.5t-85 -465.5zM352 1581 q66 150 179 150q33 0 62.5 -12.5t56 -26t52 -25.5t54.5 -12q37 0 56.5 23.5t41.5 58.5l72 -45q-66 -147 -176 -148q-35 0 -64.5 11.5t-56.5 25.5t-53.5 25.5t-53.5 11.5q-37 0 -56 -23.5t-42 -58.5z" />
<glyph unicode="&#xd6;" horiz-adv-x="1275" d="M139 696q0 354 126 541.5t372 187.5q248 0 374 -185t126 -535q0 -358 -119 -541.5t-377 -183.5q-260 0 -381 180t-121 536zM276 702q0 -311 83 -464.5t280 -153.5t278.5 152.5t81.5 457.5q0 313 -84 470t-276 157q-193 0 -278 -153.5t-85 -465.5zM371 1620 q0 41 25.5 66.5t64.5 25.5t65.5 -25.5t26.5 -66.5t-25.5 -66.5t-64.5 -25.5t-65.5 25.5t-26.5 66.5zM721 1620q0 41 25.5 66.5t64.5 25.5t65.5 -25.5t26.5 -66.5t-25.5 -66.5t-64.5 -25.5t-65.5 25.5t-26.5 66.5z" />
<glyph unicode="&#xd7;" d="M231 918l78 75l254 -278l250 276l80 -78l-256 -278l258 -285l-80 -76l-254 279l-250 -277l-78 78l256 281z" />
<glyph unicode="&#xd8;" horiz-adv-x="1275" d="M129 -80l135 234q-127 178 -127 542q0 354 126 541.5t372 187.5q186 0 307 -110l115 196l90 -55l-133 -227q121 -186 121 -524q0 -358 -119 -541.5t-377 -183.5q-186 0 -299 94l-121 -207zM274 702q0 -139 14.5 -244.5t47.5 -181.5l547 936q-86 109 -246 109 q-193 0 -278 -153.5t-85 -465.5zM399 176q84 -92 238 -92q197 0 278.5 152.5t81.5 457.5q0 258 -55 410z" />
<glyph unicode="&#xd9;" horiz-adv-x="1245" d="M193 397v1010h129v-987q0 -178 57 -253t190 -75q61 0 113.5 14.5t95.5 36t77 47t58 48.5v1169h131v-1407h-92l-30 137q-61 -59 -150.5 -108t-210.5 -49q-78 0 -145.5 22.5t-116.5 71.5t-77.5 129t-28.5 194zM365 1706l67 113l340 -242l-45 -72z" />
<glyph unicode="&#xda;" horiz-adv-x="1245" d="M193 397v1010h129v-987q0 -178 57 -253t190 -75q61 0 113.5 14.5t95.5 36t77 47t58 48.5v1169h131v-1407h-92l-30 137q-61 -59 -150.5 -108t-210.5 -49q-78 0 -145.5 22.5t-116.5 71.5t-77.5 129t-28.5 194zM473 1577l340 242l68 -113l-361 -201z" />
<glyph unicode="&#xdb;" horiz-adv-x="1245" d="M193 397v1010h129v-987q0 -178 57 -253t190 -75q61 0 113.5 14.5t95.5 36t77 47t58 48.5v1169h131v-1407h-92l-30 137q-61 -59 -150.5 -108t-210.5 -49q-78 0 -145.5 22.5t-116.5 71.5t-77.5 129t-28.5 194zM352 1575l229 240h80l231 -240l-51 -62l-221 179l-217 -179z " />
<glyph unicode="&#xdc;" horiz-adv-x="1245" d="M193 397v1010h129v-987q0 -178 57 -253t190 -75q61 0 113.5 14.5t95.5 36t77 47t58 48.5v1169h131v-1407h-92l-30 137q-61 -59 -150.5 -108t-210.5 -49q-78 0 -145.5 22.5t-116.5 71.5t-77.5 129t-28.5 194zM357 1620q0 41 25.5 66.5t64.5 25.5t65.5 -25.5t26.5 -66.5 t-25.5 -66.5t-64.5 -25.5t-65.5 25.5t-26.5 66.5zM705 1620q0 41 25.5 66.5t64.5 25.5t65.5 -25.5t26.5 -66.5t-25.5 -66.5t-64.5 -25.5t-65.5 25.5t-26.5 66.5z" />
<glyph unicode="&#xdd;" horiz-adv-x="1085" d="M74 1407h147l252 -549q29 -61 45.5 -105t30.5 -89q16 45 30.5 88t43.5 106l251 549h138l-402 -856v-551h-131v555zM440 1577l340 242l68 -113l-361 -201z" />
<glyph unicode="&#xde;" horiz-adv-x="1089" d="M201 0v1407h129v-233h223q213 0 316.5 -103.5t103.5 -300.5q0 -207 -101.5 -314.5t-296.5 -107.5h-245v-348h-129zM330 457h229q141 0 209 70.5t68 236.5q0 162 -68 231.5t-225 69.5h-213v-608z" />
<glyph unicode="&#xdf;" horiz-adv-x="1081" d="M184 0v1055q0 199 93.5 302t250.5 103q152 0 231 -75.5t79 -198.5q0 -82 -34 -137.5t-76 -96.5t-76 -71.5t-34 -63.5q0 -16 7.5 -30.5t23 -30t42 -36t67.5 -48.5q39 -29 77.5 -59.5t71.5 -72.5t53.5 -95.5t20.5 -125.5q0 -84 -26.5 -147t-73.5 -104t-109.5 -61.5 t-136.5 -20.5q-78 0 -123 12t-72 22l25 93q29 -10 69.5 -19.5t94.5 -9.5q104 0 162.5 58.5t58.5 176.5q0 55 -15.5 96.5t-41 74t-58.5 58t-65 48.5q-35 25 -65 47.5t-53.5 47t-36.5 54t-13 66.5q0 55 32.5 95t72.5 79t74 86t34 117q0 176 -187 176q-121 0 -172 -84t-51 -238 v-1042h-121z" />
<glyph unicode="&#xe0;" horiz-adv-x="968" d="M117 274q0 160 100 238t328 78h125v110q0 92 -32 142.5t-130 50.5q-82 0 -153.5 -27.5t-139.5 -70.5l-49 90q72 47 154.5 80.5t197.5 33.5q135 0 205 -67.5t70 -214.5v-717h-86l-31 119q-20 -25 -47 -49.5t-62 -44t-75.5 -32.5t-88.5 -13q-135 0 -210.5 75.5t-75.5 218.5 zM246 272q0 -102 42 -146t130 -44t150.5 44t101.5 91v279h-113q-92 0 -152.5 -12.5t-95.5 -40t-49 -69.5t-14 -102zM260 1309l68 112l340 -241l-45 -72z" />
<glyph unicode="&#xe1;" horiz-adv-x="968" d="M117 274q0 160 100 238t328 78h125v110q0 92 -32 142.5t-130 50.5q-82 0 -153.5 -27.5t-139.5 -70.5l-49 90q72 47 154.5 80.5t197.5 33.5q135 0 205 -67.5t70 -214.5v-717h-86l-31 119q-20 -25 -47 -49.5t-62 -44t-75.5 -32.5t-88.5 -13q-135 0 -210.5 75.5t-75.5 218.5 zM246 272q0 -102 42 -146t130 -44t150.5 44t101.5 91v279h-113q-92 0 -152.5 -12.5t-95.5 -40t-49 -69.5t-14 -102zM305 1180l340 241l68 -112l-361 -201z" />
<glyph unicode="&#xe2;" horiz-adv-x="968" d="M117 274q0 160 100 238t328 78h125v110q0 92 -32 142.5t-130 50.5q-82 0 -153.5 -27.5t-139.5 -70.5l-49 90q72 47 154.5 80.5t197.5 33.5q135 0 205 -67.5t70 -214.5v-717h-86l-31 119q-20 -25 -47 -49.5t-62 -44t-75.5 -32.5t-88.5 -13q-135 0 -210.5 75.5t-75.5 218.5 zM228 1178l229 239h80l231 -239l-51 -62l-221 178l-217 -178zM246 272q0 -102 42 -146t130 -44t150.5 44t101.5 91v279h-113q-92 0 -152.5 -12.5t-95.5 -40t-49 -69.5t-14 -102z" />
<glyph unicode="&#xe3;" horiz-adv-x="968" d="M117 274q0 160 100 238t328 78h125v110q0 92 -32 142.5t-130 50.5q-82 0 -153.5 -27.5t-139.5 -70.5l-49 90q72 47 154.5 80.5t197.5 33.5q135 0 205 -67.5t70 -214.5v-717h-86l-31 119q-20 -25 -47 -49.5t-62 -44t-75.5 -32.5t-88.5 -13q-135 0 -210.5 75.5t-75.5 218.5 zM192 1184q66 150 179 149q33 0 62.5 -12t56 -25.5t52 -26t54.5 -12.5q37 0 56.5 24t41.5 58l72 -45q-66 -147 -176 -147q-35 0 -65 11t-56.5 25.5t-53 26t-53.5 11.5q-37 0 -56 -23.5t-42 -58.5zM246 272q0 -102 42 -146t130 -44t150.5 44t101.5 91v279h-113 q-92 0 -152.5 -12.5t-95.5 -40t-49 -69.5t-14 -102z" />
<glyph unicode="&#xe4;" horiz-adv-x="968" d="M117 274q0 160 100 238t328 78h125v110q0 92 -32 142.5t-130 50.5q-82 0 -153.5 -27.5t-139.5 -70.5l-49 90q72 47 154.5 80.5t197.5 33.5q135 0 205 -67.5t70 -214.5v-717h-86l-31 119q-20 -25 -47 -49.5t-62 -44t-75.5 -32.5t-88.5 -13q-135 0 -210.5 75.5t-75.5 218.5 zM228 1223q0 41 25.5 66.5t64.5 25.5t65.5 -25.5t26.5 -66.5t-25.5 -67t-64.5 -26t-65.5 26t-26.5 67zM246 272q0 -102 42 -146t130 -44t150.5 44t101.5 91v279h-113q-92 0 -152.5 -12.5t-95.5 -40t-49 -69.5t-14 -102zM576 1223q0 41 25.5 66.5t64.5 25.5t65.5 -25.5 t26.5 -66.5t-25.5 -67t-64.5 -26t-65.5 26t-26.5 67z" />
<glyph unicode="&#xe5;" horiz-adv-x="968" d="M117 274q0 160 100 238t328 78h125v110q0 92 -32 142.5t-130 50.5q-82 0 -153.5 -27.5t-139.5 -70.5l-49 90q72 47 154.5 80.5t197.5 33.5q135 0 205 -67.5t70 -214.5v-717h-86l-31 119q-20 -25 -47 -49.5t-62 -44t-75.5 -32.5t-88.5 -13q-135 0 -210.5 75.5t-75.5 218.5 zM246 272q0 -102 42 -146t130 -44t150.5 44t101.5 91v279h-113q-92 0 -152.5 -12.5t-95.5 -40t-49 -69.5t-14 -102zM320 1303q0 74 47 132t131 58q43 0 76 -16.5t56.5 -42t35.5 -60.5t12 -71q0 -37 -12 -72t-35.5 -60.5t-56.5 -42t-76 -16.5q-84 0 -131 58.5t-47 132.5z M408 1303q0 -59 24.5 -87t65.5 -28t66.5 27.5t25.5 87.5q0 59 -25.5 86.5t-66.5 27.5t-65.5 -27.5t-24.5 -86.5z" />
<glyph unicode="&#xe6;" horiz-adv-x="1505" d="M117 268q0 158 100 235t328 77h125v120q0 92 -33 142.5t-129 50.5q-82 0 -153.5 -27.5t-139.5 -70.5l-49 90q72 47 154.5 80.5t197.5 33.5q193 0 240 -157q47 82 116.5 119.5t161.5 37.5q172 0 261 -112.5t89 -364.5v-39h-595q0 -115 16 -192.5t49 -124.5t83 -66.5 t120 -19.5q86 0 142 24.5t104 63.5l65 -82q-63 -51 -136 -78.5t-175 -27.5q-111 0 -194 43t-132 147q-57 -80 -140 -135t-190 -55q-135 0 -210.5 74.5t-75.5 213.5zM246 268q0 -98 42 -142t130 -44q86 0 154.5 47t117.5 115q-8 45 -13 103.5t-7 135.5h-113q-92 0 -152.5 -12 t-95.5 -37.5t-49 -66.5t-14 -99zM793 580h467q0 92 -14.5 153.5t-42 98t-69.5 52t-100 15.5q-51 0 -93 -15.5t-72.5 -52t-50 -98t-25.5 -153.5z" />
<glyph unicode="&#xe7;" horiz-adv-x="878" d="M119 487q0 139 28.5 236.5t78.5 159t121 89t155 27.5q92 0 155.5 -29.5t118.5 -84.5l-74 -84q-43 47 -88 70.5t-116 23.5q-61 0 -107.5 -19.5t-78 -65.5t-48 -124t-16.5 -194q0 -117 16.5 -196t48 -126t80.5 -66.5t115 -19.5q78 0 125 30.5t82 67.5l80 -76 q-49 -55 -118 -89.5t-169 -36.5l-39 -89q72 -4 107.5 -45t35.5 -108q0 -68 -43 -113t-135 -45q-43 0 -83 15.5t-68 37.5l41 68q29 -16 52 -25.5t58 -9.5q82 0 82 76q0 80 -82 80q-25 0 -43 -3t-37 -7l66 174q-68 12 -123 47t-95 95t-61.5 149.5t-21.5 209.5z" />
<glyph unicode="&#xe8;" horiz-adv-x="962" d="M119 487q0 139 27.5 236.5t77.5 159t119 89t151 27.5q172 0 261 -112.5t89 -364.5v-51h-596q2 -111 18.5 -185.5t48 -119.5t81.5 -63.5t120 -18.5q86 0 141.5 25.5t102.5 62.5l67 -86q-63 -51 -136 -78.5t-175 -27.5q-88 0 -160.5 26.5t-125 86t-82 156.5t-29.5 238z M250 567h467q0 94 -14.5 157.5t-42 102.5t-69.5 55.5t-99 16.5q-51 0 -93.5 -15.5t-74 -54t-50 -102t-24.5 -160.5zM270 1309l68 112l340 -241l-45 -72z" />
<glyph unicode="&#xe9;" horiz-adv-x="962" d="M119 487q0 139 27.5 236.5t77.5 159t119 89t151 27.5q172 0 261 -112.5t89 -364.5v-51h-596q2 -111 18.5 -185.5t48 -119.5t81.5 -63.5t120 -18.5q86 0 141.5 25.5t102.5 62.5l67 -86q-63 -51 -136 -78.5t-175 -27.5q-88 0 -160.5 26.5t-125 86t-82 156.5t-29.5 238z M250 567h467q0 94 -14.5 157.5t-42 102.5t-69.5 55.5t-99 16.5q-51 0 -93.5 -15.5t-74 -54t-50 -102t-24.5 -160.5zM311 1180l340 241l68 -112l-361 -201z" />
<glyph unicode="&#xea;" horiz-adv-x="962" d="M119 487q0 139 27.5 236.5t77.5 159t119 89t151 27.5q172 0 261 -112.5t89 -364.5v-51h-596q2 -111 18.5 -185.5t48 -119.5t81.5 -63.5t120 -18.5q86 0 141.5 25.5t102.5 62.5l67 -86q-63 -51 -136 -78.5t-175 -27.5q-88 0 -160.5 26.5t-125 86t-82 156.5t-29.5 238z M223 1178l229 239h80l231 -239l-51 -62l-221 178l-217 -178zM250 567h467q0 94 -14.5 157.5t-42 102.5t-69.5 55.5t-99 16.5q-51 0 -93.5 -15.5t-74 -54t-50 -102t-24.5 -160.5z" />
<glyph unicode="&#xeb;" horiz-adv-x="962" d="M119 487q0 139 27.5 236.5t77.5 159t119 89t151 27.5q172 0 261 -112.5t89 -364.5v-51h-596q2 -111 18.5 -185.5t48 -119.5t81.5 -63.5t120 -18.5q86 0 141.5 25.5t102.5 62.5l67 -86q-63 -51 -136 -78.5t-175 -27.5q-88 0 -160.5 26.5t-125 86t-82 156.5t-29.5 238z M230 1223q0 41 25.5 66.5t64.5 25.5t65.5 -25.5t26.5 -66.5t-25.5 -67t-64.5 -26t-65.5 26t-26.5 67zM250 567h467q0 94 -14.5 157.5t-42 102.5t-69.5 55.5t-99 16.5q-51 0 -93.5 -15.5t-74 -54t-50 -102t-24.5 -160.5zM578 1223q0 41 25.5 66.5t64.5 25.5t65.5 -25.5 t26.5 -66.5t-25.5 -67t-64.5 -26t-65.5 26t-26.5 67z" />
<glyph unicode="&#xec;" horiz-adv-x="555" d="M6 1309l68 112l340 -241l-45 -72zM102 901v78h263v-979h-123v883z" />
<glyph unicode="&#xed;" horiz-adv-x="555" d="M102 901v78h263v-979h-123v883zM153 1180l340 241l68 -112l-361 -201z" />
<glyph unicode="&#xee;" horiz-adv-x="555" d="M2 1178l229 239h80l231 -239l-51 -62l-221 178l-217 -178zM102 901v78h263v-979h-123v883z" />
<glyph unicode="&#xef;" horiz-adv-x="555" d="M11 1223q0 41 25.5 66.5t64.5 25.5t65.5 -25.5t26.5 -66.5t-25.5 -67t-64.5 -26t-65.5 26t-26.5 67zM102 901v78h263v-979h-123v883zM359 1223q0 41 25.5 66.5t64.5 25.5t65.5 -25.5t26.5 -66.5t-25.5 -67t-64.5 -26t-65.5 26t-26.5 67z" />
<glyph unicode="&#xf0;" horiz-adv-x="1015" d="M119 489q0 135 28.5 230.5t77.5 155t117 87t147 27.5q164 0 252 -125q-31 117 -80 201t-116 152l-230 -125l-45 79l201 109q-45 35 -94 66.5t-105 64.5l43 78q68 -35 131.5 -73t120.5 -85l203 111l45 -80l-174 -94q117 -115 186.5 -289t69.5 -440q0 -156 -27.5 -262.5 t-79 -173t-123 -95t-157.5 -28.5t-157.5 28.5t-124 90t-81 157.5t-28.5 233zM248 492q0 -117 16.5 -196t50 -127t81.5 -69.5t114 -21.5q63 0 112.5 20.5t82 68.5t49 126t16.5 192q0 111 -17.5 189t-50 126t-82 69.5t-112.5 21.5q-66 0 -115 -19.5t-81.5 -65.5t-48 -123 t-15.5 -191z" />
<glyph unicode="&#xf1;" horiz-adv-x="1032" d="M182 0v979h86l29 -141q72 72 149.5 116.5t169.5 44.5q104 0 173 -61t69 -190v-748h-123v715q0 98 -35.5 137t-111.5 39q-74 0 -145.5 -41t-137.5 -100v-750h-123zM227 1184q66 150 179 149q33 0 62.5 -12t56 -25.5t52 -26t54.5 -12.5q37 0 56.5 24t41.5 58l72 -45 q-66 -147 -176 -147q-35 0 -65 11t-56.5 25.5t-53 26t-53.5 11.5q-37 0 -56 -23.5t-42 -58.5z" />
<glyph unicode="&#xf2;" horiz-adv-x="1019" d="M119 487q0 137 28.5 234.5t80 159t122 90t156.5 28.5q84 0 156.5 -28.5t125 -90t82 -157.5t29.5 -234q0 -135 -28.5 -232t-80 -158.5t-123 -90t-157.5 -28.5t-157.5 28.5t-124 90t-81 157.5t-28.5 231zM248 492q0 -117 17.5 -196t50 -127t82 -69.5t112.5 -21.5 t112.5 20.5t82 67.5t49 126t16.5 193q0 117 -17.5 196t-50 128t-82 70.5t-112.5 21.5t-112.5 -20.5t-82 -68.5t-49 -126t-16.5 -194zM258 1309l68 112l340 -241l-45 -72z" />
<glyph unicode="&#xf3;" horiz-adv-x="1019" d="M119 487q0 137 28.5 234.5t80 159t122 90t156.5 28.5q84 0 156.5 -28.5t125 -90t82 -157.5t29.5 -234q0 -135 -28.5 -232t-80 -158.5t-123 -90t-157.5 -28.5t-157.5 28.5t-124 90t-81 157.5t-28.5 231zM248 492q0 -117 17.5 -196t50 -127t82 -69.5t112.5 -21.5 t112.5 20.5t82 67.5t49 126t16.5 193q0 117 -17.5 196t-50 128t-82 70.5t-112.5 21.5t-112.5 -20.5t-82 -68.5t-49 -126t-16.5 -194zM348 1180l340 241l68 -112l-361 -201z" />
<glyph unicode="&#xf4;" horiz-adv-x="1019" d="M119 487q0 137 28.5 234.5t80 159t122 90t156.5 28.5q84 0 156.5 -28.5t125 -90t82 -157.5t29.5 -234q0 -135 -28.5 -232t-80 -158.5t-123 -90t-157.5 -28.5t-157.5 28.5t-124 90t-81 157.5t-28.5 231zM240 1178l229 239h80l231 -239l-51 -62l-221 178l-217 -178z M248 492q0 -117 17.5 -196t50 -127t82 -69.5t112.5 -21.5t112.5 20.5t82 67.5t49 126t16.5 193q0 117 -17.5 196t-50 128t-82 70.5t-112.5 21.5t-112.5 -20.5t-82 -68.5t-49 -126t-16.5 -194z" />
<glyph unicode="&#xf5;" horiz-adv-x="1019" d="M119 487q0 137 28.5 234.5t80 159t122 90t156.5 28.5q84 0 156.5 -28.5t125 -90t82 -157.5t29.5 -234q0 -135 -28.5 -232t-80 -158.5t-123 -90t-157.5 -28.5t-157.5 28.5t-124 90t-81 157.5t-28.5 231zM223 1184q66 150 179 149q33 0 62.5 -12t56 -25.5t52 -26 t54.5 -12.5q37 0 56.5 24t41.5 58l72 -45q-66 -147 -176 -147q-35 0 -65 11t-56.5 25.5t-53 26t-53.5 11.5q-37 0 -56 -23.5t-42 -58.5zM248 492q0 -117 17.5 -196t50 -127t82 -69.5t112.5 -21.5t112.5 20.5t82 67.5t49 126t16.5 193q0 117 -17.5 196t-50 128t-82 70.5 t-112.5 21.5t-112.5 -20.5t-82 -68.5t-49 -126t-16.5 -194z" />
<glyph unicode="&#xf6;" horiz-adv-x="1019" d="M119 487q0 137 28.5 234.5t80 159t122 90t156.5 28.5q84 0 156.5 -28.5t125 -90t82 -157.5t29.5 -234q0 -135 -28.5 -232t-80 -158.5t-123 -90t-157.5 -28.5t-157.5 28.5t-124 90t-81 157.5t-28.5 231zM242 1223q0 41 25.5 66.5t64.5 25.5t65.5 -25.5t26.5 -66.5 t-25.5 -67t-64.5 -26t-65.5 26t-26.5 67zM248 492q0 -117 17.5 -196t50 -127t82 -69.5t112.5 -21.5t112.5 20.5t82 67.5t49 126t16.5 193q0 117 -17.5 196t-50 128t-82 70.5t-112.5 21.5t-112.5 -20.5t-82 -68.5t-49 -126t-16.5 -194zM592 1223q0 41 25.5 66.5t64.5 25.5 t65.5 -25.5t26.5 -66.5t-25.5 -67t-64.5 -26t-65.5 26t-26.5 67z" />
<glyph unicode="&#xf7;" d="M176 588v106h772v-106h-772zM459 307q0 45 30.5 75t73.5 30t73 -30t30 -75t-30 -74.5t-73 -29.5t-73.5 29.5t-30.5 74.5zM459 975q0 45 30.5 74.5t73.5 29.5t73 -29.5t30 -74.5t-30 -75t-73 -30t-73.5 30t-30.5 75z" />
<glyph unicode="&#xf8;" horiz-adv-x="1019" d="M115 487q0 137 28.5 234.5t79.5 159t122 90t157 28.5q131 0 223 -65l94 156l74 -48l-102 -170q49 -63 76.5 -157t27.5 -226q0 -135 -28.5 -232t-80 -158.5t-123 -90t-157.5 -28.5q-61 0 -116.5 14t-102.5 47l-97 -162l-73 47l104 174q-51 61 -78.5 156.5t-27.5 230.5z M244 492q0 -96 10 -165t33 -118l383 635q-31 31 -72 44t-94 13q-63 0 -112.5 -20.5t-82.5 -68.5t-49 -126t-16 -194zM342 131q31 -29 72 -41t92 -12q63 0 112.5 20.5t82 67.5t49 126t16.5 193q0 92 -10.5 161t-30.5 118z" />
<glyph unicode="&#xf9;" horiz-adv-x="1036" d="M174 238v741h121v-709q0 -100 39 -141t112 -41q74 0 145 38t138 93v760h123v-979h-88l-29 131q-70 -66 -145.5 -108.5t-167.5 -42.5q-106 0 -177 63t-71 195zM264 1309l68 112l340 -241l-45 -72z" />
<glyph unicode="&#xfa;" horiz-adv-x="1036" d="M174 238v741h121v-709q0 -100 39 -141t112 -41q74 0 145 38t138 93v760h123v-979h-88l-29 131q-70 -66 -145.5 -108.5t-167.5 -42.5q-106 0 -177 63t-71 195zM360 1180l340 241l68 -112l-361 -201z" />
<glyph unicode="&#xfb;" horiz-adv-x="1036" d="M174 238v741h121v-709q0 -100 39 -141t112 -41q74 0 145 38t138 93v760h123v-979h-88l-29 131q-70 -66 -145.5 -108.5t-167.5 -42.5q-106 0 -177 63t-71 195zM248 1178l229 239h80l231 -239l-51 -62l-221 178l-217 -178z" />
<glyph unicode="&#xfc;" horiz-adv-x="1036" d="M174 238v741h121v-709q0 -100 39 -141t112 -41q74 0 145 38t138 93v760h123v-979h-88l-29 131q-70 -66 -145.5 -108.5t-167.5 -42.5q-106 0 -177 63t-71 195zM250 1223q0 41 25.5 66.5t64.5 25.5t65.5 -25.5t26.5 -66.5t-25.5 -67t-64.5 -26t-65.5 26t-26.5 67zM600 1223 q0 41 25.5 66.5t64.5 25.5t65.5 -25.5t26.5 -66.5t-25.5 -67t-64.5 -26t-65.5 26t-26.5 67z" />
<glyph unicode="&#xfd;" horiz-adv-x="927" d="M76 979h131l190 -627q23 -78 39.5 -145.5t26.5 -120.5h2q10 53 28.5 118.5t43.5 147.5l188 627h127l-324 -1022q-33 -102 -66.5 -166.5t-75.5 -106.5t-97.5 -66t-128.5 -44l-31 96q66 20 112 45t79.5 62t59.5 91t48 132h-43zM327 1180l340 241l68 -112l-361 -201z" />
<glyph unicode="&#xfe;" horiz-adv-x="1048" d="M182 -418v1882h123v-608q51 53 124 98t161 45q74 0 134 -27.5t104 -88t69 -157.5t25 -237q0 -266 -87 -387.5t-253 -121.5q-92 0 -161 39.5t-116 89.5v-527h-123zM305 207q53 -53 116.5 -87t137.5 -34q57 0 101.5 18.5t73 64.5t44 121t15.5 189q0 123 -14.5 203t-42 127 t-68.5 65.5t-97 18.5q-84 0 -148.5 -43t-117.5 -92v-551z" />
<glyph unicode="&#xff;" horiz-adv-x="927" d="M76 979h131l190 -627q23 -78 39.5 -145.5t26.5 -120.5h2q10 53 28.5 118.5t43.5 147.5l188 627h127l-324 -1022q-33 -102 -66.5 -166.5t-75.5 -106.5t-97.5 -66t-128.5 -44l-31 96q66 20 112 45t79.5 62t59.5 91t48 132h-43zM203 1223q0 41 25.5 66.5t64.5 25.5 t65.5 -25.5t26.5 -66.5t-25.5 -67t-64.5 -26t-65.5 26t-26.5 67zM551 1223q0 41 25.5 66.5t64.5 25.5t65.5 -25.5t26.5 -66.5t-25.5 -67t-64.5 -26t-65.5 26t-26.5 67z" />
<glyph unicode="&#x152;" horiz-adv-x="1714" d="M139 723q0 190 36 321.5t105.5 212t172 115.5t235.5 35h891v-111h-565v-501h459v-111h-459v-573h590v-111h-910q-139 0 -242.5 39t-173 125t-104.5 224t-35 335zM276 717q0 -164 19.5 -278.5t67 -187.5t124 -106.5t193.5 -33.5h203v1185h-201q-115 0 -192.5 -31.5 t-125 -101t-68 -180.5t-20.5 -266z" />
<glyph unicode="&#x153;" horiz-adv-x="1609" d="M119 487q0 137 28.5 234.5t80 159t122 90t156.5 28.5q113 0 196.5 -52t128.5 -171q43 121 123 172t189 51q172 0 261 -112.5t89 -364.5v-51h-596q2 -111 18.5 -186.5t48 -120.5t82 -64.5t119.5 -19.5q86 0 142.5 24.5t103.5 63.5l66 -82q-63 -51 -136 -78.5t-176 -27.5 q-119 0 -204 50t-130 169q-43 -115 -125.5 -167t-195.5 -52q-86 0 -157.5 28.5t-124 90t-81 157.5t-28.5 231zM248 492q0 -117 17.5 -196t50 -127t82 -69.5t112.5 -21.5t112.5 20.5t82 67.5t49 126t16.5 193q0 117 -17.5 196t-50 128t-82 70.5t-112.5 21.5t-112.5 -20.5 t-82 -68.5t-49 -126t-16.5 -194zM899 567h467q0 94 -14.5 157.5t-42 102.5t-69.5 55.5t-99 16.5q-51 0 -93 -15.5t-74 -54t-50.5 -102t-24.5 -160.5z" />
<glyph unicode="&#x178;" horiz-adv-x="1085" d="M74 1407h147l252 -549q29 -61 45.5 -105t30.5 -89q16 45 30.5 88t43.5 106l251 549h138l-402 -856v-551h-131v555zM283 1620q0 41 25.5 66.5t64.5 25.5t65.5 -25.5t26.5 -66.5t-25.5 -66.5t-64.5 -25.5t-65.5 25.5t-26.5 66.5zM631 1620q0 41 25.5 66.5t64.5 25.5 t65.5 -25.5t26.5 -66.5t-25.5 -66.5t-64.5 -25.5t-65.5 25.5t-26.5 66.5z" />
<glyph unicode="&#x2c6;" horiz-adv-x="1112" d="M287 1178l229 239h80l231 -239l-51 -62l-221 178l-217 -178z" />
<glyph unicode="&#x2dc;" horiz-adv-x="1112" d="M270 1184q66 150 179 149q33 0 62.5 -12t56 -25.5t52 -26t54.5 -12.5q37 0 56.5 24t41.5 58l72 -45q-66 -147 -176 -147q-35 0 -65 11t-56.5 25.5t-53 26t-53.5 11.5q-37 0 -56 -23.5t-42 -58.5z" />
<glyph unicode="&#x2000;" horiz-adv-x="940" />
<glyph unicode="&#x2001;" horiz-adv-x="1880" />
<glyph unicode="&#x2002;" horiz-adv-x="940" />
<glyph unicode="&#x2003;" horiz-adv-x="1880" />
<glyph unicode="&#x2004;" horiz-adv-x="626" />
<glyph unicode="&#x2005;" horiz-adv-x="470" />
<glyph unicode="&#x2006;" horiz-adv-x="313" />
<glyph unicode="&#x2007;" horiz-adv-x="313" />
<glyph unicode="&#x2008;" horiz-adv-x="235" />
<glyph unicode="&#x2009;" horiz-adv-x="376" />
<glyph unicode="&#x200a;" horiz-adv-x="104" />
<glyph unicode="&#x2010;" horiz-adv-x="598" d="M115 487v123h366v-123h-366z" />
<glyph unicode="&#x2011;" horiz-adv-x="598" d="M115 487v123h366v-123h-366z" />
<glyph unicode="&#x2012;" horiz-adv-x="598" d="M115 487v123h366v-123h-366z" />
<glyph unicode="&#x2013;" horiz-adv-x="1034" d="M115 518v107h803v-107h-803z" />
<glyph unicode="&#x2014;" horiz-adv-x="1445" d="M115 518v107h1214v-107h-1214z" />
<glyph unicode="&#x2018;" horiz-adv-x="458" d="M121 1145q0 100 44 172t148 104l27 -67q-45 -18 -76 -54t-31 -90q35 -2 68 -28.5t33 -75.5q0 -45 -29.5 -73.5t-68.5 -28.5q-49 0 -82 37.5t-33 103.5z" />
<glyph unicode="&#x2019;" horiz-adv-x="458" d="M119 1067q43 20 74.5 55t31.5 88q-35 4 -67.5 31t-32.5 74t28.5 74.5t69.5 27.5q49 0 82 -37t33 -102q0 -102 -44 -174t-149 -103z" />
<glyph unicode="&#x201a;" horiz-adv-x="458" d="M119 -147q43 18 74.5 53t31.5 90q-35 2 -67.5 28.5t-32.5 75.5q0 45 28.5 74t69.5 29q49 0 82 -38t33 -104q0 -100 -44 -172.5t-149 -103.5z" />
<glyph unicode="&#x201c;" horiz-adv-x="798" d="M121 1145q0 100 44 172t148 104l27 -67q-45 -18 -76 -54t-31 -90q35 -2 68 -28.5t33 -75.5q0 -45 -29.5 -73.5t-68.5 -28.5q-49 0 -82 37.5t-33 103.5zM461 1145q0 100 44 172t148 104l25 -67q-43 -18 -75 -54t-32 -90q37 -2 70 -28.5t33 -75.5q0 -45 -30 -73.5 t-71 -28.5q-49 0 -80.5 37.5t-31.5 103.5z" />
<glyph unicode="&#x201d;" horiz-adv-x="798" d="M119 1067q43 20 74.5 55t31.5 88q-35 4 -67.5 31t-32.5 74t28.5 74.5t69.5 27.5q49 0 82 -37t33 -102q0 -102 -44 -174t-149 -103zM459 1067q41 20 73.5 55t32.5 88q-37 4 -68.5 31t-31.5 74t28.5 74.5t69.5 27.5q49 0 81 -37t32 -102q0 -102 -44 -174t-149 -103z" />
<glyph unicode="&#x201e;" horiz-adv-x="798" d="M119 -147q43 18 74.5 53t31.5 90q-35 2 -67.5 28.5t-32.5 75.5q0 45 28.5 74t69.5 29q49 0 82 -38t33 -104q0 -100 -44 -172.5t-149 -103.5zM459 -147q41 18 73.5 53t32.5 90q-37 2 -68.5 28.5t-31.5 75.5q0 45 28.5 74t69.5 29q49 0 81 -38t32 -104q0 -100 -44 -172.5 t-149 -103.5z" />
<glyph unicode="&#x2022;" horiz-adv-x="606" d="M123 670q0 80 49 137t131 57q80 0 129 -57t49 -137q0 -78 -49 -135.5t-129 -57.5q-82 0 -131 57.5t-49 135.5z" />
<glyph unicode="&#x2026;" horiz-adv-x="1316" d="M141 92q0 47 31 78t76 31t75.5 -31t30.5 -78t-30.5 -76.5t-75.5 -29.5t-76 29.5t-31 76.5zM551 92q0 47 31.5 78t74.5 31q45 0 76 -31t31 -78t-31 -76.5t-76 -29.5q-43 0 -74.5 29.5t-31.5 76.5zM963 92q0 47 30.5 78t75.5 31t76 -31t31 -78t-31 -76.5t-76 -29.5 t-75.5 29.5t-30.5 76.5z" />
<glyph unicode="&#x202f;" horiz-adv-x="376" />
<glyph unicode="&#x2039;" horiz-adv-x="604" d="M117 504l270 422l92 -62l-229 -360l229 -359l-92 -61z" />
<glyph unicode="&#x203a;" horiz-adv-x="604" d="M123 147l229 359l-227 358l90 62l272 -420l-272 -422z" />
<glyph unicode="&#x205f;" horiz-adv-x="470" />
<glyph unicode="&#x20ac;" d="M63 516v96h156q-2 20 -2 41v97q0 27 2 53h-156v98h164q31 268 149 396t329 128q109 0 188.5 -27.5t140.5 -74.5l-61 -88q-53 41 -116.5 63.5t-151.5 22.5q-160 0 -243 -98.5t-104 -321.5h457v-98h-463q-2 -23 -2 -49v-97q0 -23 2 -45h463v-96h-459q10 -117 36 -198.5 t70 -133t107.5 -75t151.5 -23.5q92 0 157.5 26.5t114.5 67.5l64 -86q-63 -51 -146.5 -82.5t-193.5 -31.5q-223 0 -343 131t-149 405h-162z" />
<glyph unicode="&#x2122;" horiz-adv-x="1505" d="M111 1315v92h487v-92h-190v-662h-107v662h-190zM735 653v754h156l119 -367q18 -57 25 -100t9 -57h5q2 14 7 54t25 103l117 367h156v-754h-105v428q0 92 4 157t4 79h-2q-4 -12 -17 -76.5t-42 -144.5l-104 -310h-99l-104 306q-27 80 -40 143t-18 82h-2q0 -18 4.5 -86 t4.5 -150v-428h-103z" />
<glyph unicode="&#x25fc;" horiz-adv-x="983" d="M0 0v983h983v-983h-983z" />
</font>
</defs>
</svg>
